<svg xmlns="http://www.w3.org/2000/svg" xmlns:xlink="http://www.w3.org/1999/xlink" width="206.831" height="75.842" viewBox="0 0 206.831 75.842">
  <defs>
    <radialGradient id="radial-gradient" cx="0.5" cy="0.5" r="4.022" gradientUnits="objectBoundingBox">
      <stop offset="0.01" stop-color="#664236"/>
      <stop offset="0.378" stop-color="#b9a9a3"/>
      <stop offset="0.602" stop-color="#e1dad8"/>
      <stop offset="0.866" stop-color="#fff"/>
    </radialGradient>
    <radialGradient id="radial-gradient-2" cx="0.5" cy="0.5" r="4.022" xlink:href="#radial-gradient"/>
    <linearGradient id="linear-gradient" x1="0.5" x2="0.5" y2="1" gradientUnits="objectBoundingBox">
      <stop offset="0" stop-color="#d9d6db"/>
      <stop offset="1" stop-color="#f0f5f2"/>
    </linearGradient>
    <linearGradient id="linear-gradient-3" x1="0.5" y1="-3.612" x2="0.5" y2="3.689" gradientUnits="objectBoundingBox">
      <stop offset="0" stop-color="#fff"/>
      <stop offset="1"/>
    </linearGradient>
    <linearGradient id="linear-gradient-4" x1="0.5" y1="-4.885" x2="0.5" y2="1.576" xlink:href="#linear-gradient-3"/>
    <linearGradient id="linear-gradient-5" x1="0.5" y1="-3.534" x2="0.5" y2="1.023" xlink:href="#linear-gradient-3"/>
    <linearGradient id="linear-gradient-6" x1="0.5" y1="-0.853" x2="0.5" y2="1.128" xlink:href="#linear-gradient-3"/>
    <linearGradient id="linear-gradient-7" x1="0.5" y1="-3.639" x2="0.5" y2="3.578" xlink:href="#linear-gradient-3"/>
    <linearGradient id="linear-gradient-8" x1="0.5" y1="-4.154" x2="0.5" y2="0.953" xlink:href="#linear-gradient-3"/>
    <linearGradient id="linear-gradient-9" x1="0.5" y1="-0.766" x2="0.5" y2="1.014" xlink:href="#linear-gradient-3"/>
  </defs>
  <g id="Group_143268" data-name="Group 143268" transform="translate(-410.08 -36.58)">
    <path id="Path_154197" data-name="Path 154197" d="M598.917,100.419c0,3.011-19.643,5.452-43.873,5.452s-43.875-2.441-43.875-5.452,19.642-5.454,43.875-5.454S598.917,97.406,598.917,100.419Z" transform="translate(11.341 6.55)" fill="url(#radial-gradient)" style="mix-blend-mode: multiply;isolation: isolate"/>
    <path id="Path_154198" data-name="Path 154198" d="M504.73,100.419c0,3.011-19.642,5.452-43.873,5.452s-43.874-2.441-43.874-5.452,19.642-5.454,43.874-5.454S504.73,97.406,504.73,100.419Z" transform="translate(0.774 6.55)" fill="url(#radial-gradient-2)" style="mix-blend-mode: multiply;isolation: isolate"/>
    <path id="Path_154199" data-name="Path 154199" d="M583.706,64.482a1.377,1.377,0,0,0,1.459-1.209l-.4-2.337c-.077-.806-.189-1.673-.236-2.43a1.343,1.343,0,0,0-1.623-.923l-.021-.051a1.511,1.511,0,0,1,2.064.879c.142.819.242,1.633.365,2.45.089.823.261,1.622.282,2.465a1.54,1.54,0,0,1-1.9,1.21Z" transform="translate(19.387 2.336)" fill="#705c5e"/>
    <g id="Group_143267" data-name="Group 143267" transform="translate(410.08 36.58)">
      <g id="Group_143256" data-name="Group 143256" transform="translate(11.703 0.281)">
        <g id="Group_143255" data-name="Group 143255">
          <path id="Path_154200" data-name="Path 154200" d="M591.659,66.72c.293,19.168-13.853,40.249-37.228,40.905h-.645c-11.051,0-24.071-8.22-33.176-20.936-7.082-9.9-10.375-20.5-9.29-29.353.082-.656.177-1.292.311-1.927a22.9,22.9,0,0,1,.781-2.916c2.4-7.031,14.491-12.562,29.4-13.9a.484.484,0,0,1,.115-.01c.209-.011.4-.021.573-.042.823-.052,1.3-.083,1.334-.083v-.021q2.436-.155,4.948-.156a75.9,75.9,0,0,1,8.04.427c18.051,1.969,30.886,6.511,34.072,21a34.329,34.329,0,0,1,.771,6.949Z" transform="translate(-410.448 -36.67)" fill="#10100b"/>
          <path id="Path_154201" data-name="Path 154201" d="M585.528,63a.889.889,0,0,1,.011.166,1.435,1.435,0,0,1-1.281,1.365,1.512,1.512,0,0,1-.573-.02h-.073a34.329,34.329,0,0,0-.771-6.949l.031-.009a1.619,1.619,0,0,1,.406-.115,1.424,1.424,0,0,1,1.646,1.134Z" transform="translate(-402.401 -34.523)" fill="#10100b"/>
          <path id="Path_154202" data-name="Path 154202" d="M506.787,38.75c13.583,0,41.864-1.9,42.155-1.917l.115,1.771c-.447.032-.9.062-1.334.1-.2.011-.386.021-.573.042a.484.484,0,0,0-.115.01c-6.76.427-28.739,1.781-40.249,1.781-10.447,0-29.509-1.114-38-1.645a.52.52,0,0,1-.136-.011c-1.352-.146-2.739-.26-4.144-.323l.125-1.729C464.914,36.854,493.2,38.75,506.787,38.75Z" transform="translate(-415.677 -36.833)" fill="#10100b"/>
          <path id="Path_154203" data-name="Path 154203" d="M503.964,51.518a24.591,24.591,0,0,1,9.562,2.407c-.135.635-.229,1.271-.311,1.927-.042-.022-4.938-2.542-9.25-2.542h-.512a20.5,20.5,0,0,0-8.9,2.52c-.072-.687-.187-1.365-.323-2.031a23.2,23.2,0,0,1,9.218-2.281Z" transform="translate(-412.342 -35.185)" fill="#10100b"/>
          <path id="Path_154204" data-name="Path 154204" d="M423.069,59.7c3.2-14.49,16.03-19.021,34.072-20.989a75.758,75.758,0,0,1,8.04-.427c1.366,0,2.73.032,4.064.115v.062c.061,0,1.624.1,4.144.26a.52.52,0,0,0,.136.011c14.271,1.542,25.7,6.948,28.021,13.76a22.447,22.447,0,0,1,.76,2.79c.136.666.25,1.344.323,2.031-.009.022,0,.022.011.022,1.083,8.853-2.209,19.456-9.291,29.353-9.1,12.716-22.125,20.936-33.174,20.936h-.647C436.152,106.97,422,85.888,422.3,66.72v-.061A34.484,34.484,0,0,1,423.069,59.7Z" transform="translate(-420.413 -36.67)" fill="#10100b"/>
          <path id="Path_154205" data-name="Path 154205" d="M423.259,57.554a34.484,34.484,0,0,0-.771,6.958h-.032a1.557,1.557,0,0,1-.583.02,1.423,1.423,0,0,1-1.27-1.354,1.048,1.048,0,0,1,.01-.177l.6-4.428a1.419,1.419,0,0,1,1.647-1.134A1.824,1.824,0,0,1,423.259,57.554Z" transform="translate(-420.603 -34.523)" fill="#10100b"/>
        </g>
      </g>
      <path id="Path_154206" data-name="Path 154206" d="M499.663,52.887c-2.844-8.345-22.753-14.719-42.512-12.567s-32.934,7.241-33.233,26.253,13.921,38.473,35.478,39.07S506.808,73.851,499.663,52.887Z" transform="translate(-408.529 -36.208)" fill="url(#linear-gradient)"/>
      <path id="Path_154207" data-name="Path 154207" d="M513.931,52.887c2.844-8.345,22.754-14.719,42.513-12.567s32.933,7.241,33.232,26.253-13.92,38.473-35.477,39.07S506.786,73.851,513.931,52.887Z" transform="translate(-398.565 -36.208)" fill="url(#linear-gradient)"/>
      <g id="Group_143259" data-name="Group 143259" transform="translate(0 23.683)">
        <g id="Group_143258" data-name="Group 143258">
          <g id="Group_143257" data-name="Group 143257">
            <path id="Path_154208" data-name="Path 154208" d="M583.64,66.771c9.791,4.291,17.812,9.4,12.031,13.166-4.25,2.78-8.02-.395-13.6-4.791A41.662,41.662,0,0,0,583.64,66.771Z" transform="translate(-390.785 -56.876)" fill="#382630"/>
            <path id="Path_154209" data-name="Path 154209" d="M585.429,66.361a38.4,38.4,0,0,1-1.324,7.908c-2.895-1.971-8.01-4.658-11.216-5.086-11.532-1.6-22-2.416-22-2.416-.062-.3-.125-.6-.177-.9a1.843,1.843,0,0,1-.021-.248h.021a10.143,10.143,0,0,1-.094-1.344c0-.219.01-.428.02-.626.021-.239.042-.457.062-.666,7.135-.1,13.583-.2,18.947-.26,3.23.385,6.542.9,9.656,1.583C580.814,64.642,583.7,65.746,585.429,66.361Z" transform="translate(-394.313 -57.33)" fill="#382630"/>
            <path id="Path_154210" data-name="Path 154210" d="M458.459,62.116a12,12,0,0,1,.146,3.937,7.411,7.411,0,0,1-.156.909s-10.468.8-22.009,2.382c-3.24.439-8.136,2.958-11.093,4.959a38.84,38.84,0,0,1-1.312-8.25,50.328,50.328,0,0,1,6.009-1.572c2.762-.615,5.667-1.083,8.532-1.449h.032c8.353-1.071,16.394-1.28,19.634-1.749C458.241,61.283,458.345,61.6,458.459,62.116Z" transform="translate(-408.515 -57.492)" fill="#382630"/>
            <path id="Path_154211" data-name="Path 154211" d="M423.86,66.389a41.8,41.8,0,0,0,1.573,8.7c-5.52,4.344-9.187,7.655-13.416,4.9-5.717-3.74,2.124-9.312,11.833-13.591Z" transform="translate(-410.081 -56.919)" fill="#382630"/>
            <path id="Path_154212" data-name="Path 154212" d="M517.513,63.564c13.041-.24,26.041-.437,37.342-.6-.021.209-.032.437-.042.666-.01.2-.02.407-.02.626a12.381,12.381,0,0,0,.072,1.344c-8.406-.459-24.541-.886-41.332-1.272-.041-.187-.082-.385-.125-.583Z" transform="translate(-398.488 -57.303)" fill="#070607"/>
            <path id="Path_154213" data-name="Path 154213" d="M589.125,57.884a31.574,31.574,0,0,1,.584,5.186c-1.1.012-6.989.085-15.823.2-5.364.061-11.813.157-18.947.26h-.02c-11.3.167-24.3.364-37.342.6l-4.105.177a31.891,31.891,0,0,1-.624-4.677C539.366,58.769,570.262,57.987,589.125,57.884Z" transform="translate(-398.551 -57.873)" fill="#211a24"/>
            <path id="Path_154214" data-name="Path 154214" d="M494.864,60.124l18.29-.667a34.691,34.691,0,0,0,.6,4.739l-19.612.3h-.011a32.974,32.974,0,0,0,.625-4.385Z" transform="translate(-400.65 -57.696)" fill="#211a24"/>
            <path id="Path_154215" data-name="Path 154215" d="M497.359,60.057a33.915,33.915,0,0,1-.646,4.374c-16.832.395-33.133,1.312-41.582,1.759a12,12,0,0,0-.146-3.937C461.31,61.993,496.558,60.1,497.359,60.057Z" transform="translate(-405.042 -57.629)" fill="#211a24"/>
            <path id="Path_154216" data-name="Path 154216" d="M424.61,57.874c18.437.115,50.009,1.114,76.268,1.979-.011.147-.021.293-.042.449-.8.041-36.049,1.936-42.373,2.2-.113-.521-.218-.833-.218-.833-3.24.469-11.281.678-19.634,1.749h-.032c-8.969-.125-14.552-.187-14.552-.187h-.02A31.043,31.043,0,0,1,424.61,57.874Z" transform="translate(-408.518 -57.874)" fill="#070607"/>
          </g>
        </g>
      </g>
      <g id="Group_143260" data-name="Group 143260" transform="translate(26.375 3.692)">
        <path id="Path_154217" data-name="Path 154217" d="M568.615,43.758c.656,2.135-1.386,2.8-1.084,4s-2.593,2-3.707.4,1.115-1.792.542-2.594-1.124-1.792.76-2.947C566.344,42.946,567.5,43.33,568.615,43.758Z" transform="translate(-419.242 -39.595)" fill="url(#linear-gradient-3)" style="mix-blend-mode: screen;isolation: isolate"/>
        <path id="Path_154218" data-name="Path 154218" d="M574.16,54.58c2,1.073,1.5,3.51-1.4,5.677s-2.9-1.469-1.9-2.406-.959-3.083,0-3.75C571.868,53.4,572.159,53.508,574.16,54.58Z" transform="translate(-418.484 -38.356)" fill="url(#linear-gradient-4)" style="mix-blend-mode: screen;isolation: isolate"/>
        <path id="Path_154219" data-name="Path 154219" d="M552.475,56.207c.7,1.7,2.9,0,3.7,1.552s-2.792.646-3.4,3.52-2.2,1.615-3.186,2.209-2.2,2.093-2.427.8-.772-1-2.968-2.281-.9-.812-1.9-1.844.885-1.687,2.4-2.406c1.146-.552.406-2.157,1.093-2.573s2.3,1.322,3.364,0S551.778,54.508,552.475,56.207Z" transform="translate(-421.653 -38.263)" fill="url(#linear-gradient-5)" style="mix-blend-mode: screen;isolation: isolate"/>
        <path id="Path_154220" data-name="Path 154220" d="M557.262,47.061c2.5,1.1.5,3.989-.9,3.7s-2.594-.905-3.489.7-1.1,2.4-3.5,1.905-2.292.99-2.594,2.678-1.594-.293-3.135-.2-1.749-.2-3.353-1.792-3.386,1.5-3.49,2.4-2.991,1-3.792,1.094-3.093-2.094-3.093-2.094c-.4-2.3-3.292-1.593-3.292-1.593-.8-1.9-4.2,0-4.2,0-2.291-.7-.395,2.687-2.291,2.968,0,0-3.828-1.593-2.292,1.718.863,1.862.7,2.291-.9,2.291s-2.292,2.584-4.054,2.813a25.064,25.064,0,0,1,1.042-10.76c2.437-7.125,17.334-12.832,33.946-12.978-1.4,1.219.8,2.864,2.574,2.77s1.229-.1,1.823,1.792S554.761,45.966,557.262,47.061Z" transform="translate(-424.94 -39.899)" fill="url(#linear-gradient-6)" style="mix-blend-mode: screen;isolation: isolate"/>
        <path id="Path_154221" data-name="Path 154221" d="M440.371,46.316c-.4,1.4,1.9,1.4,2.189,2.2s-2.189,1.49-2.491.594-1.791-1.4-3.687-.7-3.291.2-2.208-2.875a33.947,33.947,0,0,1,5.979-2.521C442.695,44.015,440.767,44.92,440.371,46.316Z" transform="translate(-433.795 -39.55)" fill="url(#linear-gradient-7)" style="mix-blend-mode: screen;isolation: isolate"/>
        <path id="Path_154222" data-name="Path 154222" d="M459.852,64.287c.093,1.376-1.292,1.219-1.9.208s-2.2-.28-2.4-1.187-.594-1.4-2.292-.7-3-.095-2.7-1.2-.3-2.093-1.5-3.343,1-2.646,2.3-1.646,2.5-.093,3.989,0,.116,4.011,1.5,3.292c2.489-1.292,4.489.3,3.646,1.427S459.758,62.912,459.852,64.287Z" transform="translate(-432.12 -38.084)" fill="url(#linear-gradient-8)" style="mix-blend-mode: screen;isolation: isolate"/>
        <path id="Path_154223" data-name="Path 154223" d="M484.511,60.238c.2-2.2,3.489-1.916,2.239-4.352-1.375-2.683-2.957-1-2.957-1-.961-.859,2.06-3.315-2.947-4.4-2.674-.577-4.511.29-5.032,2.621-.506,2.263-.583,2.935-2.178,1.715a4.086,4.086,0,0,0-5.384,0c-1.8,1.469-.906-.771-2.4-2.468s-3.5.4-4.594,2.1-1.7,2.187-2.395.364-1.2-.468-2.4.427-.406-3.291-1.894-2.365-3.292.563-1.1-1.332.7-3.791-1.1-2.792-2.2-.8-1.386-2.135-1.51.635-2.906,0,2.093-4.156,3.2-2.854,4.291.9,2.3-3.344c.293-.041.583-.072.885-.1,19.759-2.157,39.675,4.219,42.519,12.561a25.182,25.182,0,0,1,1.02,10.968c-2.165-1.27-3.322,1.073-5.415,2.25s-.095-2.875-1.291-5.166-3.094-.1-3.5-1.2S484.313,62.436,484.511,60.238Z" transform="translate(-432.228 -39.9)" fill="url(#linear-gradient-9)" style="mix-blend-mode: screen;isolation: isolate"/>
      </g>
      <g id="Group_143261" data-name="Group 143261" transform="translate(14.828 3.135)">
        <path id="Path_154224" data-name="Path 154224" d="M460.048,106.265h0c-.2,0-.407,0-.607-.009-22.623-.627-36.312-21.062-36.02-39.634.3-19.225,13.7-24.617,33.729-26.8a73.52,73.52,0,0,1,7.912-.425c17.177,0,32.633,5.871,35.188,13.365,3.159,9.27.156,21.634-8.036,33.077C483.331,98.247,470.706,106.265,460.048,106.265Zm5.012-65.754a72.434,72.434,0,0,0-7.792.418c-20,2.178-32.446,7.238-32.737,25.709-.284,18.044,12.994,37.9,34.937,38.505.191.006.386.009.577.009h0c10.311,0,22.581-7.834,31.26-19.959,7.981-11.151,10.93-23.14,7.885-32.071C496.823,46.169,481.511,40.511,465.059,40.511Z" transform="translate(-423.413 -39.399)" fill="#3d3b30"/>
      </g>
      <g id="Group_143262" data-name="Group 143262" transform="translate(113.607 3.135)">
        <path id="Path_154225" data-name="Path 154225" d="M553.662,106.265c-10.663,0-23.29-8.02-32.172-20.431-8.187-11.44-11.189-23.8-8.03-33.07C516.014,45.27,531.47,39.4,548.647,39.4a73.5,73.5,0,0,1,7.912.425c20.027,2.181,33.427,7.573,33.728,26.8.295,18.573-13.393,39.007-36.018,39.634C554.069,106.262,553.864,106.265,553.662,106.265Zm-5.015-65.754c-16.452,0-31.764,5.658-34.134,12.611-3.044,8.93-.1,20.916,7.881,32.065,8.68,12.128,20.953,19.966,31.268,19.966.191,0,.386,0,.577-.009,21.946-.608,35.222-20.461,34.936-38.505-.29-18.471-12.741-23.532-32.736-25.709A72.431,72.431,0,0,0,548.647,40.511Z" transform="translate(-512.228 -39.399)" fill="#3d3b30"/>
      </g>
      <path id="Path_154226" data-name="Path 154226" d="M422.492,64.535a1.54,1.54,0,0,1-1.9-1.21c.022-.842.192-1.64.282-2.464.122-.816.225-1.63.365-2.449a1.506,1.506,0,0,1,2.061-.881l-.021.051a1.34,1.34,0,0,0-1.619.923c-.046.762-.159,1.625-.235,2.432l-.4,2.336a1.378,1.378,0,0,0,1.459,1.208Z" transform="translate(-408.901 -34.244)" fill="#705c5e"/>
      <g id="Group_143263" data-name="Group 143263" transform="translate(94.073 18.128)">
        <path id="Path_154227" data-name="Path 154227" d="M513.074,55.861c-.049-.023-4.9-2.426-9.131-2.426h-.515a21.565,21.565,0,0,0-8.5,2.177l-.263-.49a21.946,21.946,0,0,1,8.764-2.242h.515c4.359,0,9.329,2.46,9.378,2.485Z" transform="translate(-494.664 -52.879)" fill="#333b4a"/>
      </g>
      <g id="Group_143264" data-name="Group 143264" transform="translate(93.252 16.331)">
        <path id="Path_154228" data-name="Path 154228" d="M513.357,54.2a22.883,22.883,0,0,0-9.331-2.379h-.515a22.891,22.891,0,0,0-9.332,2.379l-.252-.495a23.484,23.484,0,0,1,9.585-2.44h.515a23.5,23.5,0,0,1,9.586,2.44Z" transform="translate(-493.926 -51.264)" fill="#705c5e"/>
      </g>
      <path id="Path_154229" data-name="Path 154229" d="M459.554,107.65a36.63,36.63,0,0,1-14.931-3.567,37.435,37.435,0,0,1-12.141-9.409,42.593,42.593,0,0,1-10.194-28.493c.133-5.124,1.25-10.4,4.215-14.673,2.924-4.312,7.515-7.181,12.316-8.97a68.8,68.8,0,0,1,15.038-3.456,79.607,79.607,0,0,1,15.417-.718l0,.056a79.475,79.475,0,0,0-15.377.953A68.872,68.872,0,0,0,438.954,42.9c-4.749,1.8-9.235,4.651-12.064,8.878-2.872,4.191-3.944,9.362-4.047,14.422a42.146,42.146,0,0,0,9.931,28.23,37,37,0,0,0,26.783,13.169Z" transform="translate(-408.713 -36.392)" fill="#705c5e"/>
      <path id="Path_154230" data-name="Path 154230" d="M465.514,38.353a70.642,70.642,0,0,1,14.142,2.121,39.878,39.878,0,0,1,13.054,5.72,14.712,14.712,0,0,1,4.746,5.293,22.465,22.465,0,0,1,1.609,6.959,35.538,35.538,0,0,1-2,14.1A53.77,53.77,0,0,1,490.627,85.3a61.624,61.624,0,0,1-9.31,10.846,49.9,49.9,0,0,1-11.73,8.145,29.939,29.939,0,0,1-13.793,3.348l0-.056a29.8,29.8,0,0,0,13.663-3.556,49.834,49.834,0,0,0,11.6-8.161,61.184,61.184,0,0,0,9.181-10.829,53.223,53.223,0,0,0,6.305-12.67,35.1,35.1,0,0,0,2.051-13.884,22.08,22.08,0,0,0-1.526-6.813,14.314,14.314,0,0,0-4.584-5.165,39.7,39.7,0,0,0-12.9-5.748,70.443,70.443,0,0,0-14.069-2.349Z" transform="translate(-404.952 -36.381)" fill="#333b4a"/>
      <path id="Path_154231" data-name="Path 154231" d="M549.5,106.556a37.3,37.3,0,0,0,9.993-1.692,35.6,35.6,0,0,0,9.144-4.251,39.388,39.388,0,0,0,13.307-14.895,42.035,42.035,0,0,0,5.085-19.355,33.158,33.158,0,0,0-1.307-9.987,21.119,21.119,0,0,0-4.963-8.732l.039-.039a21.278,21.278,0,0,1,5.2,8.682,33.3,33.3,0,0,1,1.413,10.078,42.486,42.486,0,0,1-4.979,19.614,39.788,39.788,0,0,1-13.59,14.958,36.318,36.318,0,0,1-19.344,5.677Z" transform="translate(-394.438 -35.343)" fill="#333b4a"/>
      <path id="Path_154232" data-name="Path 154232" d="M585.074,48.694a25.949,25.949,0,0,0-8.152-5.251,49.483,49.483,0,0,0-9.321-2.787c-3.18-.667-6.4-1.142-9.635-1.506a75.8,75.8,0,0,0-9.724-.517,70.566,70.566,0,0,0-19.2,2.76,41.7,41.7,0,0,0-8.905,3.735c-2.743,1.61-5.369,3.677-6.782,6.465a23.263,23.263,0,0,0-1.746,9.324,35.453,35.453,0,0,0,1.41,9.528,53.9,53.9,0,0,0,8.757,17.222,57.951,57.951,0,0,0,13.941,13.452,41.631,41.631,0,0,0,8.585,4.548,27.918,27.918,0,0,0,9.51,1.939v.057a28.066,28.066,0,0,1-9.57-1.831,41.94,41.94,0,0,1-8.686-4.469A58.079,58.079,0,0,1,521.472,87.9a54.332,54.332,0,0,1-8.9-17.322A35.853,35.853,0,0,1,511.1,60.92a23.718,23.718,0,0,1,1.762-9.575c1.513-2.948,4.226-5.032,7.021-6.663a42.278,42.278,0,0,1,9.029-3.74,70.99,70.99,0,0,1,19.33-2.693,75.994,75.994,0,0,1,9.765.563c3.24.38,6.47.866,9.658,1.557a49.733,49.733,0,0,1,9.33,2.915,26.058,26.058,0,0,1,8.12,5.37Z" transform="translate(-398.747 -36.393)" fill="#705c5e"/>
      <g id="Group_143265" data-name="Group 143265" transform="translate(60.543 1.793)">
        <path id="Path_154233" data-name="Path 154233" d="M506.811,40.667c-13.632,0-42.014-1.9-42.295-1.92l.037-.555c.281.02,28.643,1.919,42.258,1.919,13.714,0,41.975-1.9,42.254-1.919l.039.555C548.824,38.766,520.543,40.667,506.811,40.667Z" transform="translate(-464.516 -38.192)" fill="#333b4a"/>
      </g>
      <g id="Group_143266" data-name="Group 143266" transform="translate(60.664)">
        <path id="Path_154234" data-name="Path 154234" d="M506.8,39.051c-13.662,0-41.894-1.9-42.173-1.916l.039-.555c.278.019,28.49,1.915,42.134,1.915s41.855-1.9,42.133-1.915l.039.555C548.691,37.154,520.459,39.051,506.8,39.051Z" transform="translate(-464.625 -36.58)" fill="#705c5e"/>
      </g>
    </g>
  </g>
</svg>
