<svg xmlns="http://www.w3.org/2000/svg" xmlns:xlink="http://www.w3.org/1999/xlink" width="160.301" height="68.084" viewBox="0 0 160.301 68.084">
  <defs>
    <radialGradient id="radial-gradient" cx="0.5" cy="0.5" r="4.198" gradientUnits="objectBoundingBox">
      <stop offset="0.01" stop-color="#664236"/>
      <stop offset="0.313" stop-color="#b9a9a3"/>
      <stop offset="0.582" stop-color="#e1dad8"/>
      <stop offset="0.915" stop-color="#fff"/>
    </radialGradient>
    <linearGradient id="linear-gradient" x1="0.5" x2="0.5" y2="1" gradientUnits="objectBoundingBox">
      <stop offset="0" stop-color="#d9d6db"/>
      <stop offset="1" stop-color="#f0f5f2"/>
    </linearGradient>
    <linearGradient id="linear-gradient-3" x1="0.5" y1="-0.786" x2="0.5" y2="1.149" gradientUnits="objectBoundingBox">
      <stop offset="0" stop-color="#fff"/>
      <stop offset="1"/>
    </linearGradient>
    <linearGradient id="linear-gradient-5" x1="0.5" y1="-0.532" x2="0.5" y2="1.016" xlink:href="#linear-gradient-3"/>
  </defs>
  <g id="Group_143287" data-name="Group 143287" transform="translate(-221.551 -36.634)">
    <path id="Path_154307" data-name="Path 154307" d="M304.357,100.126c0,2.537-17.271,4.592-38.574,4.592s-38.575-2.055-38.575-4.592,17.27-4.6,38.575-4.6S304.357,97.588,304.357,100.126Z" fill="url(#radial-gradient)" style="mix-blend-mode: multiply;isolation: isolate"/>
    <path id="Path_154308" data-name="Path 154308" d="M378.614,100.126c0,2.537-17.27,4.592-38.574,4.592s-38.575-2.055-38.575-4.592,17.269-4.6,38.575-4.6S378.614,97.588,378.614,100.126Z" fill="url(#radial-gradient)" style="mix-blend-mode: multiply;isolation: isolate"/>
    <g id="Group_143286" data-name="Group 143286">
      <path id="Path_154309" data-name="Path 154309" d="M293.414,57.56c-2.289-6.149-19.923-13.139-35.937-14.652s-27.489.883-26.1,16.391,7.186,27.238,16.645,32.909,29.046,4.92,34.926,0C289.125,87.039,296.566,66.035,293.414,57.56Z" fill="url(#linear-gradient)"/>
      <path id="Path_154310" data-name="Path 154310" d="M310.03,57.56c2.287-6.149,19.922-13.139,35.936-14.652s27.489.883,26.1,16.391-7.187,27.238-16.643,32.909-29.048,4.92-34.929,0C314.316,87.039,306.877,66.035,310.03,57.56Z" fill="url(#linear-gradient)"/>
      <path id="Path_154311" data-name="Path 154311" d="M379.844,53.971a27.114,27.114,0,0,0,.291-5.01c-.378-7.817-5.8-11.475-14.118-11.852q-1.369-.068-3.027-.08V37.02C378.107,36.6,385.521,35.388,379.844,53.971Z" fill="#662702"/>
      <path id="Path_154312" data-name="Path 154312" d="M380.135,48.961a27.114,27.114,0,0,1-.291,5.01c0,.009-.009.018-.009.027-1.053,7.274-4.544,16.213-7.94,23.874h-.008a63.344,63.344,0,0,0,4.2-18.215c.569-6.413-.8-11.494-4.08-15.074-3.746-4.1-9.845-6.1-18.636-6.1-2.343,0-4.9.131-7.792.4a93.4,93.4,0,0,0-19.223,4.08,112.214,112.214,0,0,1,36.631-5.94q1.659.015,3.027.08C374.335,37.486,379.757,41.144,380.135,48.961Z" fill="#514747"/>
      <path id="Path_154313" data-name="Path 154313" d="M309.873,51.321c3.816-3.351,9.9-6.2,16.486-8.352a93.4,93.4,0,0,1,19.223-4.08c2.9-.272,5.449-.4,7.792-.4,8.791,0,14.89,1.992,18.636,6.1,3.281,3.58,4.649,8.661,4.08,15.074a63.344,63.344,0,0,1-4.2,18.215C368.658,85.8,363.779,91.9,357.5,95.664c-4.825,2.9-12.17,4.554-20.153,4.554-8.493,0-15.758-1.833-19.444-4.914-5.071-4.246-11.037-17.538-12.362-28.5-.491-4.062-.351-7.8.711-10.642A12.389,12.389,0,0,1,309.873,51.321Zm-.342,15c1,8.212,4.94,18.425,8.9,23.635a13.806,13.806,0,0,0,2.07,2.247c5.879,4.921,25.471,5.676,34.93,0s15.248-17.4,16.643-32.911-10.09-17.9-26.1-16.389-33.656,8.5-35.938,14.652A19.626,19.626,0,0,0,309.531,66.326Z" fill="#080c0b"/>
      <path id="Path_154314" data-name="Path 154314" d="M316.9,78.968c.58,5,1.4,10.213,1.527,10.993-3.957-5.21-7.9-15.423-8.9-23.635C314.278,71.554,316.269,73.581,316.9,78.968Z" fill="#662702"/>
      <path id="Path_154315" data-name="Path 154315" d="M309.873,51.321a12.389,12.389,0,0,0-3.623,4.836c-1.062,2.841-1.2,6.58-.711,10.642a3.922,3.922,0,0,0-7.65.114c.508-4.106.377-7.888-.694-10.756a12.455,12.455,0,0,0-3.668-4.879c3.422,2.176,6.02,2.85,8.2,2.85S306.487,53.462,309.873,51.321Z" fill="#0d0d0d"/>
      <path id="Path_154316" data-name="Path 154316" d="M297.2,56.157c1.071,2.868,1.2,6.65.694,10.756v.008C296.538,77.862,290.6,91.076,285.536,95.3c-3.677,3.081-10.951,4.914-19.434,4.914-7.985,0-15.337-1.658-20.155-4.554-6.281-3.763-11.16-9.861-14.388-17.792a63.344,63.344,0,0,1-4.2-18.215c-.57-6.413.8-11.494,4.071-15.074,3.755-4.1,9.853-6.1,18.635-6.1,2.352,0,4.9.131,7.792.4a92.982,92.982,0,0,1,19.232,4.088c6.562,2.132,12.617,4.967,16.433,8.292a.008.008,0,0,1,.008.009A12.455,12.455,0,0,1,297.2,56.157Zm-3.272,10.08a19.361,19.361,0,0,0-.509-8.677c-2.289-6.15-19.926-13.135-35.937-14.652s-27.49.885-26.1,16.389,7.186,27.243,16.644,32.911,29.049,4.921,34.929,0a13.225,13.225,0,0,0,1.991-2.142C288.939,84.864,292.94,74.52,293.923,66.237Z" fill="#080c0b"/>
      <path id="Path_154317" data-name="Path 154317" d="M286.482,78.968c.623-5.422,2.642-7.44,7.441-12.731-.983,8.283-4.984,18.627-8.985,23.829h-.008S285.851,84.391,286.482,78.968Z" fill="#662702"/>
      <path id="Path_154318" data-name="Path 154318" d="M223.583,53.918a27.115,27.115,0,0,1-.28-4.957c.386-7.817,5.8-11.475,14.126-11.852.9-.045,1.912-.07,3-.08a112.194,112.194,0,0,1,36.656,5.94v.008a92.982,92.982,0,0,0-19.232-4.088c-2.9-.272-5.44-.4-7.792-.4-8.782,0-14.88,1.992-18.635,6.1-3.273,3.58-4.641,8.661-4.071,15.074a63.344,63.344,0,0,0,4.2,18.215h-.009C228.145,70.177,224.627,61.21,223.583,53.918Z" fill="#514747"/>
      <path id="Path_154319" data-name="Path 154319" d="M240.43,37.02v.009c-1.089.01-2.1.035-3,.08-8.327.377-13.74,4.035-14.126,11.852a27.115,27.115,0,0,0,.28,4.957C217.942,35.406,225.329,36.6,240.43,37.02Z" fill="#662702"/>
      <path id="Path_154320" data-name="Path 154320" d="M256.847,91.956c-1.25,1.877,20.13,3.393,25.722-1.885s10.34-24.957,8.07-24.714-2.27,9.7-11.474,17.647S257.6,90.822,256.847,91.956Z" fill="url(#linear-gradient-3)" style="mix-blend-mode: screen;isolation: isolate"/>
      <path id="Path_154321" data-name="Path 154321" d="M346.559,91.956c1.25,1.877-20.132,3.393-25.724-1.885S310.5,65.114,312.766,65.357s2.269,9.7,11.473,17.647S345.8,90.822,346.559,91.956Z" fill="url(#linear-gradient-3)" style="mix-blend-mode: screen;isolation: isolate"/>
      <g id="Group_143283" data-name="Group 143283">
        <g id="Group_143282" data-name="Group 143282">
          <path id="Path_154322" data-name="Path 154322" d="M309.876,51.391c-.009.008-.009.017-.018.017-.412.264-.806.5-1.193.712-2.186-.141-4.4-.273-6.642-.377v-.01C304.62,51.6,307.243,51.487,309.876,51.391Z" fill="#423129"/>
          <path id="Path_154323" data-name="Path 154323" d="M231.569,77.94a44.1,44.1,0,0,0,2.844,5.808c-3.7,4.071-6.1,6.459-8.064,4.853-4.729-3.853-1.526-8.046,4.317-12.7.3.684.6,1.369.894,2.035Z" fill="#705c57"/>
          <path id="Path_154324" data-name="Path 154324" d="M292.652,56.233a4.437,4.437,0,0,1,.255.387c-8.519.413-15.968,1.175-21.2,2.457-17.294,4.22-27.691,14.24-34.446,21.549l-.008.008a44.123,44.123,0,0,1-3.116-7.343c2.974-2.151,6.282-4.4,9.459-6.749a73.048,73.048,0,0,1,18.854-9.65C271.886,56.515,282.441,56.233,292.652,56.233Z" fill="#705c57"/>
          <path id="Path_154325" data-name="Path 154325" d="M317.315,51.171c20.216-.491,40.316-.193,53.679-.745H371a17.421,17.421,0,0,1,1.142,8.107l-.273-.018c-2.9-.2-14.934-1.027-30-1.623-.639-.2-1.271-.386-1.877-.534a162.638,162.638,0,0,0-25.066-3.766C315.657,52.111,316.456,51.635,317.315,51.171Z" fill="#423129"/>
          <path id="Path_154326" data-name="Path 154326" d="M373.012,75.413c6.238,4.853,9.843,9.2,4.948,13.188-2.062,1.676-4.58-1.01-8.579-5.413h-.009a46.212,46.212,0,0,0,3.518-7.871C372.933,75.353,372.969,75.378,373.012,75.413Z" fill="#674f40"/>
          <path id="Path_154327" data-name="Path 154327" d="M341.873,56.892a73.271,73.271,0,0,1,18.839,9.65c2.894,2.142,5.9,4.2,8.66,6.178l.131.043a44.346,44.346,0,0,1-2.992,7.292c-6.774-7.256-17.066-16.864-33.91-20.978-5.371-1.317-13.135-2.08-22.023-2.483a14.618,14.618,0,0,1,4.352-4A162.638,162.638,0,0,1,340,56.358C340.6,56.506,341.234,56.69,341.873,56.892Z" fill="#674f40"/>
          <path id="Path_154328" data-name="Path 154328" d="M308.665,52.12a13.877,13.877,0,0,1-6.914,2.088c-2.176,0-4.764-.667-8.15-2.826,2.825.1,5.641.22,8.422.361C304.26,51.847,306.479,51.979,308.665,52.12Z" fill="#674f40"/>
          <path id="Path_154329" data-name="Path 154329" d="M262.453,56.892c-15.6.606-28.155,1.457-31.1,1.667h-.028a17.547,17.547,0,0,1,1.142-8.133c13.284.552,33.4.254,53.669.737a19.791,19.791,0,0,1,6.518,5.07C282.441,56.233,271.886,56.515,262.453,56.892Z" fill="#674f40"/>
        </g>
      </g>
      <path id="Path_154330" data-name="Path 154330" d="M237.428,72.034c2.016.006,2.648-1.346,8.575-8.238s15.258-12.639,23.454-12.918,8.951-1.162,2.143-3.3-26.1-4.917-34.172,0S235.18,72.029,237.428,72.034Z" fill="url(#linear-gradient-5)" style="mix-blend-mode: screen;isolation: isolate"/>
      <path id="Path_154331" data-name="Path 154331" d="M366,72.034c-2.018.006-2.648-1.346-8.575-8.238s-15.257-12.639-23.452-12.918-8.954-1.162-2.144-3.3,26.1-4.917,34.171,0S368.254,72.029,366,72.034Z" fill="url(#linear-gradient-5)" style="mix-blend-mode: screen;isolation: isolate"/>
      <path id="Path_154332" data-name="Path 154332" d="M309.957,51.195a14.968,14.968,0,0,0-2.8,3.185,11.008,11.008,0,0,0-1.452,3.955,28.047,28.047,0,0,0-.124,8.488l-.1.011a18.035,18.035,0,0,1-.619-2.1c-.132-.715-.239-1.436-.316-2.165a15.78,15.78,0,0,1,.178-4.423q.115-.551.269-1.1a10.639,10.639,0,0,1,.358-1.074,8.205,8.205,0,0,1,1.141-2.018,10.1,10.1,0,0,1,3.4-2.837Z" fill="#4f402b"/>
      <path id="Path_154333" data-name="Path 154333" d="M362.967,36.853c2.76-.084,5.519-.226,8.287-.219a31.523,31.523,0,0,1,4.149.252,9.54,9.54,0,0,1,3.957,1.32,5.465,5.465,0,0,1,2.262,3.47,12.993,12.993,0,0,1,.12,4.163,44.623,44.623,0,0,1-1.854,8.083l-.143-.043c.324-2.78.713-5.522.825-8.16.089-2.626-.263-5.215-2.047-6.269a8.358,8.358,0,0,0-3.325-1.165c-1.263-.255-2.6-.334-3.956-.468-2.712-.188-5.5-.391-8.271-.814Z" fill="#9b4013"/>
      <path id="Path_154334" data-name="Path 154334" d="M240.432,37c-2.775.423-5.56.626-8.272.814-1.351.134-2.693.212-3.956.468a8.342,8.342,0,0,0-3.325,1.165c-1.783,1.053-2.136,3.643-2.047,6.269.111,2.638.5,5.38.824,8.16l-.142.043a44.728,44.728,0,0,1-1.855-8.083,13.08,13.08,0,0,1,.12-4.163,5.466,5.466,0,0,1,2.263-3.47A9.556,9.556,0,0,1,228,36.885a31.694,31.694,0,0,1,4.149-.251c2.768-.007,5.528.135,8.287.219Z" fill="#9b4013"/>
      <path id="Path_154335" data-name="Path 154335" d="M293.942,66.172c-.592.942-1.271,1.807-1.891,2.716-.663.87-1.319,1.739-1.907,2.632a22.164,22.164,0,0,0-1.58,2.7,12.7,12.7,0,0,0-.918,2.93c-.248,1-.368,2.057-.534,3.163-.172,1.087-.3,2.179-.547,3.253l-.7,3.226c-.3,1.065-.546,2.137-.907,3.189l-.1-.016q.5-3.248.938-6.505l.413-3.258c.134-1.085.226-2.183.46-3.262a14.012,14.012,0,0,1,2.856-5.9c1.357-1.73,2.871-3.317,4.342-4.94Z" fill="#c48c73"/>
      <path id="Path_154336" data-name="Path 154336" d="M309.471,66.106c1.47,1.623,2.985,3.21,4.34,4.94a14.022,14.022,0,0,1,2.858,5.9c.233,1.079.327,2.177.461,3.262l.412,3.258q.435,3.257.935,6.505l-.1.016c-.361-1.053-.608-2.124-.906-3.189l-.7-3.226c-.25-1.074-.374-2.167-.546-3.253-.166-1.107-.286-2.159-.535-3.163a12.617,12.617,0,0,0-.918-2.93,22.152,22.152,0,0,0-1.58-2.7c-.589-.893-1.244-1.763-1.906-2.633-.62-.909-1.3-1.774-1.892-2.716Z" fill="#c48c73"/>
      <g id="Group_143284" data-name="Group 143284">
        <path id="Path_154337" data-name="Path 154337" d="M266.08,96.591h0c-7.364,0-14.047-1.475-18.334-4.049-9.477-5.683-15.475-17.507-16.887-33.294-.489-5.466.544-9.513,3.16-12.372,3.047-3.333,8.291-4.953,16.03-4.953,2.235,0,4.674.128,7.456.391,16.7,1.578,34.029,8.717,36.359,14.977,3.15,8.467-4.068,29.726-10.614,35.207C280.229,95.023,273.65,96.591,266.08,96.591ZM250.047,42.923c-7.444,0-12.445,1.514-15.292,4.627-2.415,2.641-3.364,6.438-2.9,11.609,1.383,15.46,7.209,27.011,16.4,32.526,4.136,2.482,10.632,3.906,17.82,3.906h0c7.236,0,13.723-1.515,16.525-3.861,6.195-5.186,13.294-26.093,10.32-34.09-2.176-5.847-19.437-12.81-35.516-14.33C254.658,43.05,252.25,42.923,250.047,42.923Z" fill="#c48c73"/>
      </g>
      <path id="Path_154338" data-name="Path 154338" d="M277.048,42.926q-5.472-1.609-11.06-2.683c-3.708-.764-7.447-1.36-11.205-1.757-3.758-.373-7.521-.685-11.293-.721q-2.826-.037-5.647.092a23.435,23.435,0,0,0-5.423.809,12.425,12.425,0,0,0-4.737,2.342,9.43,9.43,0,0,0-2.924,4.27c-1.154,3.383-.682,7.212-.07,10.872a78.926,78.926,0,0,0,2.967,10.908c1.169,3.605,2.5,7.165,3.918,10.694l-.092.04c-3.054-6.949-5.961-14.031-7.552-21.488a34.985,34.985,0,0,1-.731-5.66,15.922,15.922,0,0,1,.7-5.657,10.368,10.368,0,0,1,3.17-4.708A13.406,13.406,0,0,1,232.15,37.7a24.249,24.249,0,0,1,5.654-.8q2.85-.111,5.705-.047a107.906,107.906,0,0,1,11.373.859,116.394,116.394,0,0,1,22.2,5.118Z" fill="#7d7a7a"/>
      <g id="Group_143285" data-name="Group 143285">
        <path id="Path_154339" data-name="Path 154339" d="M337.324,96.591c-7.572,0-14.151-1.568-17.171-4.093-6.546-5.481-13.762-26.739-10.612-35.207,2.327-6.259,19.656-13.4,36.357-14.977,2.783-.263,5.221-.391,7.456-.391,7.739,0,12.983,1.62,16.03,4.953,2.615,2.859,3.649,6.906,3.161,12.372-1.412,15.786-7.409,27.61-16.885,33.294C351.371,95.116,344.687,96.591,337.324,96.591Zm16.03-53.668c-2.2,0-4.612.127-7.362.387-16.081,1.52-33.341,8.483-35.514,14.329-2.976,8,4.123,28.906,10.318,34.091,2.8,2.346,9.291,3.861,16.528,3.861,7.188,0,13.684-1.424,17.822-3.906,9.2-5.516,15.02-17.067,16.4-32.526.462-5.171-.488-8.968-2.9-11.609C365.8,44.437,360.8,42.923,353.354,42.923Z" fill="#c48c73"/>
      </g>
      <path id="Path_154340" data-name="Path 154340" d="M326.322,42.831a116.412,116.412,0,0,1,22.2-5.118,107.9,107.9,0,0,1,11.374-.859q2.852-.06,5.7.047a24.248,24.248,0,0,1,5.653.8,13.4,13.4,0,0,1,5.083,2.575,10.37,10.37,0,0,1,3.171,4.708,15.939,15.939,0,0,1,.7,5.657,34.761,34.761,0,0,1-.729,5.66c-1.592,7.457-4.5,14.539-7.553,21.488l-.092-.04c1.414-3.53,2.748-7.089,3.918-10.694a78.929,78.929,0,0,0,2.967-10.908c.612-3.66,1.083-7.489-.07-10.872a9.437,9.437,0,0,0-2.924-4.27,12.429,12.429,0,0,0-4.738-2.342,23.426,23.426,0,0,0-5.421-.809q-2.82-.133-5.649-.092c-3.771.036-7.535.348-11.293.721-3.758.4-7.5.993-11.205,1.757q-5.582,1.071-11.06,2.683Z" fill="#7d7a7a"/>
      <path id="Path_154341" data-name="Path 154341" d="M293.527,51.134a10.107,10.107,0,0,1,3.391,2.836,8.241,8.241,0,0,1,1.136,2.017,10.875,10.875,0,0,1,.356,1.073q.154.544.269,1.1a15.729,15.729,0,0,1,.176,4.416c-.077.727-.184,1.448-.316,2.161a17.872,17.872,0,0,1-.619,2.1l-.1-.012a28.059,28.059,0,0,0-.123-8.475,11.045,11.045,0,0,0-1.445-3.951,14.925,14.925,0,0,0-2.791-3.184Z" fill="#4f402b"/>
      <path id="Path_154342" data-name="Path 154342" d="M266.079,100.075c2.157-.175,4.3-.375,6.414-.758a41.431,41.431,0,0,0,6.209-1.484,24.8,24.8,0,0,0,2.921-1.176,16,16,0,0,0,2.676-1.526,17.206,17.206,0,0,0,4.053-4.613A60.387,60.387,0,0,0,294,79.108c.727-2.007,1.462-4.017,2.047-6.075s1.058-4.147,1.457-6.254l.01-.053,0-.008a4.814,4.814,0,0,1,1.607-2.282,3.921,3.921,0,0,1,2.589-.785v.1a3.854,3.854,0,0,0-2.409.9,4.461,4.461,0,0,0-1.379,2.189l0-.008A59.221,59.221,0,0,1,294.82,79.4a55.253,55.253,0,0,1-5.662,11.65,18.038,18.038,0,0,1-4.348,4.8,20.6,20.6,0,0,1-5.9,2.681,46.072,46.072,0,0,1-12.832,1.638Z" fill="#2b332b"/>
      <path id="Path_154343" data-name="Path 154343" d="M337.321,100.025a52.71,52.71,0,0,0,10.041-1.211,32.127,32.127,0,0,0,9.359-3.465,33.824,33.824,0,0,0,12.843-14.82,57.8,57.8,0,0,0,5.1-19.206c.081-.844.159-1.641.211-2.491.045-.794.061-1.622.038-2.425a21.1,21.1,0,0,0-.639-4.736,13.786,13.786,0,0,0-4.911-7.638,19.743,19.743,0,0,0-8.659-3.5,45.732,45.732,0,0,0-9.8-.505,79.673,79.673,0,0,0-9.91,1.014,90.919,90.919,0,0,0-9.733,2.229,87.675,87.675,0,0,0-9.422,3.269,53.324,53.324,0,0,0-8.737,4.505c-.675.444-1.329.909-1.952,1.4a12.375,12.375,0,0,1-2.52,1.507,22.686,22.686,0,0,1-5.264,1.717,11.893,11.893,0,0,1-5.877-.558,22.52,22.52,0,0,1-4.943-2.452l-.11-.071-.1-.085a33.242,33.242,0,0,0-7.251-4.6,68.86,68.86,0,0,0-8.206-3.307,93.009,93.009,0,0,0-17.347-3.989c-5.882-.664-11.923-1.056-17.568.064a19.35,19.35,0,0,0-7.706,3.185,13.546,13.546,0,0,0-4.76,6.569,22.024,22.024,0,0,0-.974,8.458,70.737,70.737,0,0,0,1.154,8.836,50.842,50.842,0,0,0,6.183,16.588A31.126,31.126,0,0,0,248.57,96.353a36.757,36.757,0,0,0,8.532,2.688,53.313,53.313,0,0,0,8.977.984v.2a44.819,44.819,0,0,1-17.769-3.289,31.921,31.921,0,0,1-13.3-12.088,51.048,51.048,0,0,1-6.57-16.869,71.955,71.955,0,0,1-1.293-9,23.491,23.491,0,0,1,.932-9.027,15.113,15.113,0,0,1,5.2-7.378A20.511,20.511,0,0,1,241.616,39a42.475,42.475,0,0,1,9.061-.775,87.305,87.305,0,0,1,9.071.6,94.727,94.727,0,0,1,17.718,3.987,70.463,70.463,0,0,1,8.451,3.359,35.208,35.208,0,0,1,7.7,4.847l-.022-.017a20.5,20.5,0,0,0,4.507,2.219,10.1,10.1,0,0,0,4.914.475A20.8,20.8,0,0,0,307.8,52.16a10.331,10.331,0,0,0,2.147-1.267c.675-.522,1.373-1.014,2.088-1.478a55.284,55.284,0,0,1,9.08-4.633,89.625,89.625,0,0,1,9.642-3.294,83.569,83.569,0,0,1,20.08-3.217,47.488,47.488,0,0,1,10.172.58,20.842,20.842,0,0,1,9.357,3.918,15.363,15.363,0,0,1,5.348,8.546,27.827,27.827,0,0,1,.294,10.161,59.05,59.05,0,0,1-5.465,19.54,34.576,34.576,0,0,1-13.485,14.931,32.748,32.748,0,0,1-9.6,3.335,52.778,52.778,0,0,1-10.134.942Z" fill="#2b332b"/>
      <path id="Path_154344" data-name="Path 154344" d="M337.321,100.174a46.065,46.065,0,0,1-12.831-1.638,20.617,20.617,0,0,1-5.9-2.68,18.017,18.017,0,0,1-4.348-4.8,55.316,55.316,0,0,1-5.662-11.649,59.317,59.317,0,0,1-3.109-12.571l-.007-.055.054-.011.027,0-.046.075a4.472,4.472,0,0,0-1.379-2.189,3.846,3.846,0,0,0-2.408-.9v-.1a3.918,3.918,0,0,1,2.588.785,4.819,4.819,0,0,1,1.607,2.282l.128.366-.413.1-.025.007.3-.407c.4,2.106.857,4.2,1.457,6.252s1.321,4.068,2.047,6.075A60.584,60.584,0,0,0,315.05,90.52a17.187,17.187,0,0,0,4.053,4.612,15.924,15.924,0,0,0,2.676,1.525,24.621,24.621,0,0,0,2.92,1.176,41.431,41.431,0,0,0,6.209,1.484c2.111.383,4.256.583,6.413.758Z" fill="#7d7a7a"/>
    </g>
  </g>
</svg>
