<svg xmlns="http://www.w3.org/2000/svg" xmlns:xlink="http://www.w3.org/1999/xlink" width="391.641" height="149.303" viewBox="0 0 391.641 149.303">
  <defs>
    <radialGradient id="radial-gradient" cx="0.5" cy="0.5" r="3.538" gradientUnits="objectBoundingBox">
      <stop offset="0.01" stop-color="#664236"/>
      <stop offset="0.343" stop-color="#b9a9a3"/>
      <stop offset="0.582" stop-color="#e1dad8"/>
      <stop offset="0.866" stop-color="#fff"/>
    </radialGradient>
    <linearGradient id="linear-gradient" y1="0.5" x2="1" y2="0.5" gradientUnits="objectBoundingBox">
      <stop offset="0" stop-color="#f0f5f2"/>
      <stop offset="1" stop-color="#d9d6db"/>
    </linearGradient>
    <linearGradient id="linear-gradient-2" y1="0.5" x2="1" y2="0.5" gradientUnits="objectBoundingBox">
      <stop offset="0" stop-color="#d9d6db"/>
      <stop offset="1" stop-color="#f0f5f2"/>
    </linearGradient>
    <linearGradient id="linear-gradient-3" y1="0.5" x2="1" y2="0.5" gradientUnits="objectBoundingBox">
      <stop offset="0" stop-color="#2b262e"/>
      <stop offset="1" stop-color="#737080"/>
    </linearGradient>
    <linearGradient id="linear-gradient-4" y1="0.5" x2="1" y2="0.5" gradientUnits="objectBoundingBox">
      <stop offset="0" stop-color="#737080"/>
      <stop offset="1" stop-color="#2b262e"/>
    </linearGradient>
    <linearGradient id="linear-gradient-5" x1="0.5" y1="-0.66" x2="0.5" y2="0.63" gradientUnits="objectBoundingBox">
      <stop offset="0" stop-color="#fff"/>
      <stop offset="1"/>
    </linearGradient>
    <linearGradient id="linear-gradient-6" x1="20.071" y1="-0.66" x2="20.071" y2="0.63" xlink:href="#linear-gradient-5"/>
    <linearGradient id="linear-gradient-7" x1="-1.479" y1="0.69" x2="0.615" y2="0.489" xlink:href="#linear-gradient-5"/>
    <linearGradient id="linear-gradient-8" x1="87.985" y1="0.69" x2="90.079" y2="0.489" xlink:href="#linear-gradient-5"/>
  </defs>
  <g id="Group_143289" data-name="Group 143289" transform="translate(-218.676 -299.662)">
    <path id="Path_154345" data-name="Path 154345" d="M380.063,364.651c0,6.118-35.119,11.083-78.433,11.083s-78.438-4.965-78.438-11.083,35.119-11.085,78.438-11.085S380.063,358.528,380.063,364.651Z" transform="translate(6.134 73.231)" fill="url(#radial-gradient)" style="mix-blend-mode: multiply;isolation: isolate"/>
    <path id="Path_154346" data-name="Path 154346" d="M471.207,364.651c0,6.118-35.119,11.083-78.433,11.083s-78.438-4.965-78.438-11.083,35.119-11.085,78.438-11.085S471.207,358.528,471.207,364.651Z" transform="translate(129.958 73.231)" fill="url(#radial-gradient)" style="mix-blend-mode: multiply;isolation: isolate"/>
    <g id="Group_143288" data-name="Group 143288" transform="translate(218.676 299.662)">
      <path id="Path_154347" data-name="Path 154347" d="M300.569,307.042c-45.7.417-63.681,15.331-70.167,39.211s-2.064,71.936,47.761,81.075,76.063-17.1,85.792-45.992,5.9-46.581-10.908-59.258S308.517,306.969,300.569,307.042Z" transform="translate(-205.91 -289.638)" fill="url(#linear-gradient)"/>
      <path id="Path_154348" data-name="Path 154348" d="M384.135,307.042c45.7.417,63.681,15.331,70.167,39.211s2.064,71.936-47.761,81.075-76.063-17.1-85.792-45.992-5.9-46.581,10.908-59.258S376.187,306.969,384.135,307.042Z" transform="translate(-87.153 -289.638)" fill="url(#linear-gradient-2)"/>
      <path id="Path_154349" data-name="Path 154349" d="M241.695,314.463c83.823,2.79,254.341,13.477,283.158,23.635s79.106,39.263,67.577,52.81-28.564.7-53.732-22.906-59.226-20.47-128.189-24.772S228.513,342.1,228.513,342.1c.354-2.1.79-4.087,1.29-5.929C232.093,327.734,235.82,320.414,241.695,314.463Z" transform="translate(-205.311 -279.554)" fill="url(#linear-gradient-3)"/>
      <path id="Path_154350" data-name="Path 154350" d="M572.3,314.463c-83.82,2.79-254.341,13.477-283.158,23.635s-79.106,39.263-67.577,52.81,28.564.7,53.732-22.906,59.225-20.47,128.192-24.772S585.483,342.1,585.483,342.1c-.356-2.1-.79-4.087-1.29-5.929C581.9,327.734,578.174,320.414,572.3,314.463Z" transform="translate(-217.044 -279.554)" fill="url(#linear-gradient-4)"/>
      <path id="Path_154351" data-name="Path 154351" d="M414.374,337.25c18.614,0,22.151,9.139,18.024,16.51s-1.179,22.616,8.55,36.074c5.333,7.38,9.51,11.557,12.076,12.866,0,0-3-6.736-4.227-10.368-10.038-29.814-6.3-49.31,12.13-63.211,17.128-12.922,44.975-15.75,54.258-15.75h.382c43.119.394,63.945,12.088,73.549,41.822,3.922,12.142,1.325,33.355,1.325,33.355,2.693-2.941,5.038-10.871,6.465-23.288,2.064-17.984,9.434-19.458,11.793-22.111s1.474-10.613-2.653-21.522S597.2,302.757,542.66,300.1s-90.214,11.5-104.071,22.406c0,0-5.679-5.6-24.215-5.6s-24.213,5.6-24.213,5.6C376.3,311.6,340.632,297.45,286.09,300.1s-59.258,10.611-63.386,21.522-5.012,18.868-2.653,21.522,9.729,4.127,11.793,22.111c1.425,12.418,3.769,20.347,6.465,23.288,0,0-2.6-21.213,1.323-33.355,9.606-29.734,30.432-41.428,73.549-41.822h.382c9.283,0,37.13,2.828,54.258,15.75,18.427,13.9,22.168,33.4,12.13,63.211-1.222,3.632-4.227,10.368-4.227,10.368,2.566-1.309,6.743-5.486,12.078-12.866,9.729-13.458,12.677-28.7,8.55-36.074S395.763,337.25,414.374,337.25Z" transform="translate(-218.555 -299.504)" fill="#302d38"/>
      <path id="Path_154352" data-name="Path 154352" d="M300.135,320.81c-1.7-20.767-49.761-10.772-62.728,12.026-18.182,31.963,1.448,81.622,25.166,80.384,2.715-.146-9.845-9.958,1.717-41.265S301.026,331.693,300.135,320.81Z" transform="translate(-202.905 -286.328)" fill="url(#linear-gradient-5)" style="mix-blend-mode: screen;isolation: isolate"/>
      <path id="Path_154353" data-name="Path 154353" d="M343.306,320.81c1.7-20.767,49.763-10.772,62.73,12.026,18.182,31.963-1.451,81.622-25.166,80.384-2.717-.146,9.845-9.958-1.719-41.265S342.415,331.693,343.306,320.81Z" transform="translate(-49.39 -286.328)" fill="url(#linear-gradient-6)" style="mix-blend-mode: screen;isolation: isolate"/>
      <path id="Path_154354" data-name="Path 154354" d="M300.721,307.32a149.856,149.856,0,0,0-26.17,2.521c-8.564,1.708-17.031,4.481-24.3,9.269a42.138,42.138,0,0,0-15.956,19.861,65.45,65.45,0,0,0-4.373,25.293,72.708,72.708,0,0,0,4.651,25.118,53.7,53.7,0,0,0,35.55,32.973,80.581,80.581,0,0,0,12.437,2.656,105.41,105.41,0,0,0,12.739,1.052,75.1,75.1,0,0,0,25.031-3.116,59.957,59.957,0,0,0,21.831-12.194,68.538,68.538,0,0,0,15.623-19.88,80.187,80.187,0,0,0,5.054-11.833,107.717,107.717,0,0,0,3.561-12.463c1.809-8.387,2.425-17.215-.139-25.394-2.5-8.179-8.378-15.121-15.536-20.015-7.21-4.885-15.545-7.979-24.005-10.168A117.265,117.265,0,0,0,300.721,307.32Zm0-.354a117.727,117.727,0,0,1,26.14,3.46c8.524,2.125,16.949,5.153,24.326,10.052,7.3,4.88,13.566,11.793,16.359,20.272,2.859,8.448,2.41,17.592.752,26.2a109.492,109.492,0,0,1-3.344,12.783A83.191,83.191,0,0,1,360.031,392a69.868,69.868,0,0,1-15.845,21.026,63.11,63.11,0,0,1-22.852,13.052,78.409,78.409,0,0,1-26.13,3.514,105.236,105.236,0,0,1-13.17-1.2,83.557,83.557,0,0,1-12.906-2.889,58.022,58.022,0,0,1-22.779-13.132,56.738,56.738,0,0,1-14.165-22.128,74.979,74.979,0,0,1-4.219-26,67.132,67.132,0,0,1,5.064-25.812,43.889,43.889,0,0,1,16.762-20.026c7.448-4.8,16.022-7.51,24.649-9.149A150.382,150.382,0,0,1,300.718,306.966Z" transform="translate(-206.062 -289.739)" fill="#7d7882"/>
      <path id="Path_154355" data-name="Path 154355" d="M384.28,306.966a150.33,150.33,0,0,1,26.274,2.292c8.632,1.639,17.2,4.347,24.652,9.149a43.874,43.874,0,0,1,16.762,20.026,67.088,67.088,0,0,1,5.064,25.812,74.979,74.979,0,0,1-4.219,26,56.711,56.711,0,0,1-14.165,22.128A57.989,57.989,0,0,1,415.868,425.5a83.589,83.589,0,0,1-12.9,2.889,105.274,105.274,0,0,1-13.17,1.2,78.408,78.408,0,0,1-26.133-3.514,63.11,63.11,0,0,1-22.852-13.052A69.869,69.869,0,0,1,324.965,392a83.191,83.191,0,0,1-4.92-12.269,109.977,109.977,0,0,1-3.347-12.783c-1.656-8.606-2.1-17.75.757-26.2,2.79-8.479,9.059-15.392,16.357-20.272,7.378-4.9,15.8-7.927,24.328-10.052A117.692,117.692,0,0,1,384.28,306.966Zm0,.354a117.324,117.324,0,0,0-26,3.682c-8.458,2.189-16.793,5.283-24,10.168-7.161,4.894-13.033,11.835-15.536,20.015-2.566,8.179-1.951,17.007-.139,25.394a107.73,107.73,0,0,0,3.559,12.463,80.7,80.7,0,0,0,5.054,11.833,68.539,68.539,0,0,0,15.623,19.88,59.975,59.975,0,0,0,21.831,12.194,75.113,75.113,0,0,0,25.034,3.116,105.45,105.45,0,0,0,12.736-1.052,80.375,80.375,0,0,0,12.434-2.656,53.68,53.68,0,0,0,35.553-32.973,72.651,72.651,0,0,0,4.651-25.118,65.493,65.493,0,0,0-4.37-25.293,42.157,42.157,0,0,0-15.958-19.861c-7.274-4.788-15.741-7.561-24.307-9.269A149.808,149.808,0,0,0,384.276,307.32Z" transform="translate(-87.296 -289.739)" fill="#7d7882"/>
      <path id="Path_154356" data-name="Path 154356" d="M364.953,394.871s-1.8,2.951-4,0a81.638,81.638,0,0,0,4.875-11.5c9.729-28.892,5.9-46.581-10.908-59.258s-44.529-15.109-52.478-15.036c-45.7.417-63.681,15.331-70.167,39.211a76.657,76.657,0,0,0-1.12,32.428c-2.594,2.061-3.618,0-3.618,0s-2.6-21.213,1.323-33.355c9.606-29.734,30.432-41.428,73.549-41.822h.382c9.283,0,37.13,2.828,54.258,15.75,18.427,13.9,22.168,33.4,12.13,63.211C367.958,388.135,364.953,394.871,364.953,394.871Z" transform="translate(-207.783 -291.675)" fill="#211a24"/>
      <path id="Path_154357" data-name="Path 154357" d="M461.075,380.717s-1.024,2.061-3.618,0a76.7,76.7,0,0,0-1.12-32.428c-6.486-23.88-24.468-38.793-70.167-39.211-7.948-.073-35.673,2.359-52.478,15.036s-20.637,30.366-10.908,59.258a81.149,81.149,0,0,0,4.87,11.5c-2.2,2.948-4,0-4,0s-3-6.736-4.227-10.368c-10.038-29.814-6.3-49.31,12.13-63.211,17.128-12.922,44.975-15.75,54.258-15.75h.382c43.119.394,63.945,12.088,73.549,41.822C463.672,359.5,461.075,380.717,461.075,380.717Z" transform="translate(-89.188 -291.675)" fill="#211a24"/>
      <path id="Path_154358" data-name="Path 154358" d="M293.871,335.717,291.512,313.9s5.064-5.55,19.458-6.288l1.179,18.081S298.982,325.5,293.871,335.717Z" transform="translate(-119.724 -288.86)" fill="url(#linear-gradient-7)" style="mix-blend-mode: screen;isolation: isolate"/>
      <path id="Path_154359" data-name="Path 154359" d="M321.291,335.717l2.359-21.817s-5.066-5.55-19.458-6.288l-1.179,18.081S316.18,325.5,321.291,335.717Z" transform="translate(-104.101 -288.86)" fill="url(#linear-gradient-8)" style="mix-blend-mode: screen;isolation: isolate"/>
      <path id="Path_154360" data-name="Path 154360" d="M590.428,388.589a19.585,19.585,0,0,0,3.2-7.026,69.341,69.341,0,0,0,1.639-7.653c.413-2.578.731-5.177.991-7.776a56.559,56.559,0,0,1,1.182-7.885,29.8,29.8,0,0,1,2.769-7.618,19.449,19.449,0,0,1,5.394-6.257,10.042,10.042,0,0,0,2.54-2.288,7.247,7.247,0,0,0,.6-3.21,30.364,30.364,0,0,0-1.125-7.4,71.951,71.951,0,0,0-2.38-7.321,41.107,41.107,0,0,0-3.071-6.875c-2.425-4.135-6.762-6.651-11.5-8.321a82.7,82.7,0,0,0-14.939-3.467c-5.118-.776-10.3-1.3-15.491-1.708-20.84-1.542-41.723-1.84-62.27,1.071a176.4,176.4,0,0,0-30.182,6.861c-9.7,3.234-19.364,7.363-27.173,13.378l-2.151,1.66-1.924-1.884c.031.031-.448-.342-.75-.514-.351-.217-.731-.429-1.132-.627a22.458,22.458,0,0,0-2.552-1.073,36.921,36.921,0,0,0-5.623-1.455,67.181,67.181,0,0,0-11.991-.95,66.112,66.112,0,0,0-11.991.943,36.884,36.884,0,0,0-5.625,1.458,22.425,22.425,0,0,0-2.552,1.071c-.4.2-.781.413-1.132.63-.3.172-.783.543-.75.514l-1.92,1.885-2.151-1.66c-7.809-6.017-17.47-10.146-27.173-13.38a176.4,176.4,0,0,0-30.18-6.859c-20.548-2.908-41.442-2.625-62.275-1.078-5.193.41-10.375.934-15.493,1.712a82.545,82.545,0,0,0-14.939,3.469c-4.738,1.672-9.078,4.186-11.5,8.323a41.822,41.822,0,0,0-3.076,6.875,71.954,71.954,0,0,0-2.377,7.321,30.253,30.253,0,0,0-1.125,7.406,7.247,7.247,0,0,0,.606,3.21,10.073,10.073,0,0,0,2.54,2.29,19.416,19.416,0,0,1,5.392,6.253,29.833,29.833,0,0,1,2.774,7.62,57.161,57.161,0,0,1,1.184,7.882c.257,2.6.573,5.2.991,7.776a69.238,69.238,0,0,0,1.639,7.653,19.662,19.662,0,0,0,3.2,7.021l-.259.241a19.938,19.938,0,0,1-3.443-7.111,69.182,69.182,0,0,1-1.821-7.679c-1.057-5.158-1.2-10.463-2.5-15.531-1.229-5.035-3.644-10.012-7.988-13.019a11,11,0,0,1-2.979-2.658,8.491,8.491,0,0,1-.892-3.9,31.706,31.706,0,0,1,1-7.849,73.388,73.388,0,0,1,2.271-7.564,43.22,43.22,0,0,1,3.142-7.255c2.667-4.705,7.554-7.58,12.455-9.361a84.467,84.467,0,0,1,15.316-3.771c5.191-.856,10.415-1.448,15.649-1.927,10.467-.9,20.965-1.545,31.479-1.535a234.973,234.973,0,0,1,31.451,2.087,179.585,179.585,0,0,1,30.765,6.842c9.962,3.288,19.838,7.389,28.279,13.812l-.446.026c3.479-2.734,7.691-3.809,11.821-4.653a75.775,75.775,0,0,1,25.262,0c4.13.847,8.342,1.92,11.819,4.653l-.446-.024c8.441-6.425,18.314-10.524,28.279-13.814a179.584,179.584,0,0,1,30.765-6.842A235.392,235.392,0,0,1,529,299.662c10.517-.009,21.012.634,31.482,1.535,5.231.479,10.458,1.071,15.647,1.925a84.7,84.7,0,0,1,15.319,3.774c4.9,1.781,9.786,4.656,12.453,9.361a42.893,42.893,0,0,1,3.142,7.257,73.788,73.788,0,0,1,2.274,7.561,31.815,31.815,0,0,1,1,7.849,8.551,8.551,0,0,1-.892,3.9,11.043,11.043,0,0,1-2.981,2.658c-4.342,3.007-6.757,7.984-7.986,13.019-1.3,5.069-1.441,10.373-2.5,15.531a69.373,69.373,0,0,1-1.823,7.682,19.994,19.994,0,0,1-3.439,7.1Z" transform="translate(-218.676 -299.662)" fill="#5c5261"/>
      <path id="Path_154361" data-name="Path 154361" d="M285.29,382.233a19.19,19.19,0,0,0,4-3.578c1.21-1.328,2.349-2.727,3.439-4.16a88.7,88.7,0,0,0,6.007-8.946,51.523,51.523,0,0,0,7.087-19.814,22.914,22.914,0,0,0-.788-9.908,16.2,16.2,0,0,0-1.073-2.222,14.091,14.091,0,0,1-1.109-2.991,10.938,10.938,0,0,1,.33-6.491,11.483,11.483,0,0,1,3.988-5.1,18.579,18.579,0,0,1,5.453-2.686,41.815,41.815,0,0,1,22.732,0,18.651,18.651,0,0,1,5.451,2.686,11.5,11.5,0,0,1,3.988,5.1,10.922,10.922,0,0,1,.33,6.486,13.976,13.976,0,0,1-1.087,2.948,16.643,16.643,0,0,0-1.094,2.264,22.863,22.863,0,0,0-.792,9.913,51.579,51.579,0,0,0,7.09,19.814,89.121,89.121,0,0,0,6.01,8.946c1.092,1.434,2.231,2.83,3.441,4.16a19.245,19.245,0,0,0,4,3.573l-.106.212c-3.2-1.851-5.573-4.71-7.934-7.448a89.456,89.456,0,0,1-6.46-8.783,52.809,52.809,0,0,1-7.852-20.222,23.409,23.409,0,0,1,.686-10.856,17.821,17.821,0,0,1,1.158-2.481,12.1,12.1,0,0,0,.9-2.517,8.8,8.8,0,0,0-.292-5.231c-1.316-3.38-4.727-5.4-8.111-6.413a42.488,42.488,0,0,0-21.39,0c-3.382,1.014-6.79,3.033-8.109,6.413a8.817,8.817,0,0,0-.292,5.231,12.318,12.318,0,0,0,.9,2.512,17.446,17.446,0,0,1,1.16,2.486,23.38,23.38,0,0,1,.686,10.856,52.8,52.8,0,0,1-7.849,20.222,89.84,89.84,0,0,1-6.462,8.783c-2.359,2.738-4.736,5.6-7.929,7.446Z" transform="translate(-128.177 -279.141)" fill="#453d4d"/>
      <path id="Path_154362" data-name="Path 154362" d="M273.694,308.068c7.9,2.578,15.635,6.083,22.194,11.378a39.581,39.581,0,0,1,13.684,20.774c2.111,8.21,1.759,16.812.2,25.008a115.789,115.789,0,0,1-7.613,23.8,136.237,136.237,0,0,0,6.722-23.961c1.361-8.137,1.7-16.581-.446-24.543a39.236,39.236,0,0,0-13.121-20.383C288.982,314.828,281.447,311.052,273.694,308.068Z" transform="translate(-143.93 -288.242)" fill="#a19499"/>
      <path id="Path_154363" data-name="Path 154363" d="M363.821,308.871a53.821,53.821,0,0,1,15.359,11.18A54.981,54.981,0,0,1,389.7,335.978a62.555,62.555,0,0,1,4.661,18.508,74.3,74.3,0,0,1-.708,19.007,88.842,88.842,0,0,0-.193-18.906,64.719,64.719,0,0,0-4.842-18.144,56.394,56.394,0,0,0-10.095-15.776A60.67,60.67,0,0,0,363.821,308.871Z" transform="translate(-21.489 -287.151)" fill="#a19499"/>
      <path id="Path_154364" data-name="Path 154364" d="M219.356,331.087a30.734,30.734,0,0,1,.726-7.406,43.312,43.312,0,0,1,2.165-7.146,36.857,36.857,0,0,1,3.422-6.651c1.408-1.981,2.988-4.271,5.479-4.939a6.962,6.962,0,0,0-2.712,2.368,22.466,22.466,0,0,0-1.993,3.045,57.082,57.082,0,0,0-3.1,6.616A66.175,66.175,0,0,0,219.356,331.087Z" transform="translate(-217.775 -292.485)" fill="#a19499"/>
    </g>
  </g>
</svg>
