<svg xmlns="http://www.w3.org/2000/svg" xmlns:xlink="http://www.w3.org/1999/xlink" width="158.418" height="61.461" viewBox="0 0 158.418 61.461">
  <defs>
    <radialGradient id="radial-gradient" cx="0.5" cy="0.5" r="4.198" gradientUnits="objectBoundingBox">
      <stop offset="0.01" stop-color="#664236"/>
      <stop offset="0.313" stop-color="#b9a9a3"/>
      <stop offset="0.582" stop-color="#e1dad8"/>
      <stop offset="0.915" stop-color="#fff"/>
    </radialGradient>
    <linearGradient id="linear-gradient" x1="0.5" y1="-1.432" x2="0.5" y2="0.963" gradientUnits="objectBoundingBox">
      <stop offset="0" stop-color="#fff"/>
      <stop offset="1"/>
    </linearGradient>
    <linearGradient id="linear-gradient-2" x1="0.5" y1="2.051" x2="0.5" y2="0.281" xlink:href="#linear-gradient"/>
    <linearGradient id="linear-gradient-3" x1="0.5" x2="0.5" y2="1" gradientUnits="objectBoundingBox">
      <stop offset="0" stop-color="#d9d6db"/>
      <stop offset="1" stop-color="#f0f5f2"/>
    </linearGradient>
    <linearGradient id="linear-gradient-5" x1="0.5" y1="-0.701" x2="0.5" y2="0.601" xlink:href="#linear-gradient"/>
  </defs>
  <g id="Group_143274" data-name="Group 143274" transform="translate(-222.492 -169.75)">
    <path id="Path_154235" data-name="Path 154235" d="M298.941,226.759c0,2.458-16.744,4.452-37.4,4.452s-37.4-1.994-37.4-4.452,16.744-4.455,37.4-4.455S298.941,224.3,298.941,226.759Z" transform="translate(0 0)" fill="url(#radial-gradient)" style="mix-blend-mode: multiply;isolation: isolate"/>
    <path id="Path_154236" data-name="Path 154236" d="M379.791,226.759c0,2.458-16.745,4.452-37.4,4.452s-37.4-1.994-37.4-4.452,16.743-4.455,37.4-4.455S379.791,224.3,379.791,226.759Z" transform="translate(0 0)" fill="url(#radial-gradient)" style="mix-blend-mode: multiply;isolation: isolate"/>
    <g id="Group_143273" data-name="Group 143273" transform="translate(222.492 169.75)">
      <path id="Path_154237" data-name="Path 154237" d="M301.768,169.81c-4.245,0-11.526-.135-25.665,0,8.09.154,13.926,1.676,17.422,4.544a10.487,10.487,0,0,1,2.246,2.491c2.457,3.828,3.147,8.9,2.067,14.734-.17.927-.383,1.871-.647,2.833a9,9,0,0,1,4.577-1.753,10.38,10.38,0,0,1,4.585,1.753c-.263-.962-.476-1.906-.647-2.833-1.08-5.836-.392-10.906,2.067-14.734a10.645,10.645,0,0,1,2.084-2.364c.23-.178.392-.315.486-.375,3.521-2.713,9.255-4.151,17.106-4.3C313.31,169.675,306.021,169.81,301.768,169.81Z" transform="translate(-222.492 -169.75)"/>
      <path id="Path_154238" data-name="Path 154238" d="M380.862,191.613l-.782,6.831a2.073,2.073,0,0,1-2.391,1.692h-.043a2.284,2.284,0,0,1-.339-.067,21.162,21.162,0,0,0,.3-10.455,2.339,2.339,0,0,1,1.277-.2l.043.008A2.073,2.073,0,0,1,380.862,191.613Z" transform="translate(-222.492 -169.75)" fill="#543d36"/>
      <path id="Path_154239" data-name="Path 154239" d="M377.6,189.614a21.162,21.162,0,0,1-.3,10.455,30.737,30.737,0,0,1-4.883,10.037c-5.735,7.912-15.584,17.345-29.961,17.345a33.885,33.885,0,0,1-7.153-.774c-12-2.561-22.45-15.686-27.069-26.787a43.887,43.887,0,0,1-1.888-5.478c-.263-.962-.476-1.906-.647-2.833-1.08-5.836-.392-10.906,2.067-14.734a10.645,10.645,0,0,1,2.084-2.364c.23-.178.392-.315.486-.375,3.521-2.713,9.255-4.151,17.106-4.3.451-.007.91-.017,1.378-.017a117.632,117.632,0,0,1,33.3,5.444c9.986,3.191,13.729,8.882,15.107,13.092C377.375,188.755,377.5,189.18,377.6,189.614Z" transform="translate(-222.492 -169.75)"/>
      <path id="Path_154240" data-name="Path 154240" d="M301.768,169.81c4.253,0,11.542-.135,25.681,0-7.851.145-13.585,1.583-17.106,4.3-.094.06-.256.2-.486.375-1.573,1.267-6.047,4.976-8.089,4.976-2.237,0-5.164-2.85-8.243-5.1-3.5-2.868-9.332-4.39-17.422-4.544C290.242,169.675,297.523,169.81,301.768,169.81Z" transform="translate(-222.492 -169.75)" fill="url(#linear-gradient)" style="mix-blend-mode: screen;isolation: isolate"/>
      <path id="Path_154241" data-name="Path 154241" d="M305.706,191.579c.171.927.384,1.871.647,2.833a10.38,10.38,0,0,0-4.585-1.753,9,9,0,0,0-4.577,1.753c.264-.962.477-1.906.647-2.833a6.459,6.459,0,0,1,3.93-2.229A7.727,7.727,0,0,1,305.706,191.579Z" transform="translate(-222.492 -169.75)" fill="url(#linear-gradient-2)" style="mix-blend-mode: screen;isolation: isolate"/>
      <path id="Path_154242" data-name="Path 154242" d="M293.525,174.354a10.487,10.487,0,0,1,2.246,2.491c2.457,3.828,3.147,8.9,2.067,14.734-.17.927-.383,1.871-.647,2.833a43.567,43.567,0,0,1-1.888,5.478c-4.628,11.1-15.065,24.226-27.068,26.787a33.964,33.964,0,0,1-7.154.774c-14.376,0-24.227-9.433-29.96-17.345a30.671,30.671,0,0,1-4.883-10.054,21.174,21.174,0,0,1-.306-10.412c.11-.443.229-.876.374-1.311,1.378-4.21,5.121-9.9,15.108-13.092a117.624,117.624,0,0,1,33.3-5.444c.468,0,.935.01,1.386.017C284.193,169.964,290.029,171.486,293.525,174.354Z" transform="translate(-222.492 -169.75)"/>
      <path id="Path_154243" data-name="Path 154243" d="M226.238,200.052a2.138,2.138,0,0,1-.4.084h-.043a2.073,2.073,0,0,1-2.39-1.692l-.782-6.831a2.067,2.067,0,0,1,1.938-2.2l.043-.008a2.372,2.372,0,0,1,1.328.23A21.174,21.174,0,0,0,226.238,200.052Z" transform="translate(-222.492 -169.75)" fill="#543d36"/>
      <path id="Path_154244" data-name="Path 154244" d="M292.48,178.963c-5.249-8.164-31.907-5.745-49.878,0s-14.426,20.418-8.313,28.852,17.115,18.459,33.13,15.038S300.182,190.946,292.48,178.963Z" transform="translate(-222.492 -169.75)" fill="url(#linear-gradient-3)"/>
      <path id="Path_154245" data-name="Path 154245" d="M311.062,178.963c5.249-8.164,31.909-5.745,49.879,0s14.426,20.418,8.313,28.852-17.114,18.459-33.129,15.038S303.361,190.946,311.062,178.963Z" transform="translate(-222.492 -169.75)" fill="url(#linear-gradient-3)"/>
      <g id="Group_143269" data-name="Group 143269" transform="translate(2.104 20.398)">
        <path id="Path_154246" data-name="Path 154246" d="M231.037,209.985a54.257,54.257,0,0,0,4.185,5.1c-3.692,3.913-6.653,6.686-8.847,5.317-3.674-2.3-1.259-7.154,3.616-11.952Q230.488,209.234,231.037,209.985Z" transform="translate(-224.596 -190.148)" fill="#3b2e2b"/>
        <path id="Path_154247" data-name="Path 154247" d="M291.417,198.6l.034.016a.333.333,0,0,1-.034.1c-19.923.273-36.63,1.063-40.45,2.841-4.95,2.3-9.314,6.677-13.065,10.676a51.874,51.874,0,0,1-3.692-4.534c-.434-.6-.859-1.234-1.259-1.9a57.966,57.966,0,0,1,9.893-6.585C254.677,198.927,273.034,198.62,291.417,198.6Z" transform="translate(-224.596 -190.148)" fill="#3b2e2b"/>
        <path id="Path_154248" data-name="Path 154248" d="M309.646,191.552h-.007c-.036-.179-.069-.358-.1-.536,26.216-.69,52.562-.4,64.114-.868a17.256,17.256,0,0,1-.408,9.459c-1.447-.084-6-.238-12.539-.4-.731-.374-1.455-.731-2.178-1.062C350.273,194.367,331.058,192.5,309.646,191.552Z" transform="translate(-224.596 -190.148)" fill="#3b2e2b"/>
      </g>
      <g id="Group_143270" data-name="Group 143270" transform="translate(6.751 20.39)">
        <path id="Path_154249" data-name="Path 154249" d="M373.454,208.352c4.942,4.832,7.417,9.732,3.71,12.054-2.2,1.386-5.2-1.446-8.924-5.411a53.8,53.8,0,0,0,4.1-5.01C372.731,209.449,373.1,208.9,373.454,208.352Z" transform="translate(-229.243 -190.14)" fill="#543d36"/>
        <path id="Path_154250" data-name="Path 154250" d="M360.7,199.207a58.575,58.575,0,0,1,9.782,6.491,23.51,23.51,0,0,1-1.309,1.991,48.5,48.5,0,0,1-3.616,4.44c-3.734-3.964-8.072-8.294-12.99-10.582-3.819-1.778-20.611-2.578-40.61-2.841a39.477,39.477,0,0,1-2.321-7.154h.007c21.412.952,40.627,2.815,48.879,6.593C359.248,198.476,359.972,198.833,360.7,199.207Z" transform="translate(-229.243 -190.14)" fill="#543d36"/>
        <path id="Path_154251" data-name="Path 154251" d="M306.269,194.282a43.252,43.252,0,0,0,1.446,4.372c-3.939-.034-7.97-.05-12.028-.059a43.792,43.792,0,0,0,1.42-4.313,9.079,9.079,0,0,1,4.585-1.752A10.352,10.352,0,0,1,306.269,194.282Z" transform="translate(-229.243 -190.14)" fill="#543d36"/>
        <path id="Path_154252" data-name="Path 154252" d="M293.842,191.008a37.833,37.833,0,0,1-2.391,7.6l-.034-.016c-18.383.025-36.74.332-48.573.612-6.8.162-11.45.323-12.7.409a17.229,17.229,0,0,1-.417-9.476h.008C241.177,190.607,267.555,190.326,293.842,191.008Z" transform="translate(-229.243 -190.14)" fill="#543d36"/>
      </g>
      <path id="Path_154253" data-name="Path 154253" d="M261.868,180.435c-1.417-5.083-27.66,0-28.806,11.141-1.22,11.869,10.274,23.82,18.261,26.753s-7.214-5.95-3.933-16.177S264.536,190,261.868,180.435Z" transform="translate(-222.492 -169.75)" fill="url(#linear-gradient-5)" style="mix-blend-mode: screen;isolation: isolate"/>
      <path id="Path_154254" data-name="Path 154254" d="M342.73,180.435c1.417-5.083,27.661,0,28.8,11.141,1.221,11.869-10.273,23.82-18.26,26.753s7.213-5.95,3.933-16.177S340.062,190,342.73,180.435Z" transform="translate(-222.492 -169.75)" fill="url(#linear-gradient-5)" style="mix-blend-mode: screen;isolation: isolate"/>
      <g id="Group_143271" data-name="Group 143271" transform="translate(6.317 3.458)">
        <path id="Path_154255" data-name="Path 154255" d="M261.083,224.041h0c-12.937,0-21.931-8.664-27.2-15.933-1.692-2.334-7.006-10.584-4.339-18.71,1.651-5.03,5.993-8.7,12.9-10.912a114.084,114.084,0,0,1,32.267-5.278c6.687,0,15.27.951,18.184,5.484s2.63,11.765-.749,19.884c-4.428,10.637-14.31,22.56-24.629,24.767A30.95,30.95,0,0,1,261.083,224.041Zm13.634-49.833a113.017,113.017,0,0,0-31.963,5.232c-6.589,2.106-10.714,5.562-12.258,10.269-2.52,7.677,2.576,15.575,4.2,17.813,5.131,7.08,13.873,15.519,26.388,15.519h0a29.843,29.843,0,0,0,6.231-.677c9.982-2.135,19.587-13.776,23.914-24.173,3.252-7.81,3.555-14.72.832-18.958C289.977,175.993,283.817,174.208,274.717,174.208Z" transform="translate(-228.809 -173.208)" fill="#4c494b"/>
      </g>
      <g id="Group_143272" data-name="Group 143272" transform="translate(86.153 3.458)">
        <path id="Path_154256" data-name="Path 154256" d="M342.463,224.041a30.971,30.971,0,0,1-6.443-.7c-10.319-2.207-20.2-14.13-24.628-24.768-3.38-8.118-3.653-15.365-.749-19.883s11.5-5.484,18.183-5.484a114.1,114.1,0,0,1,32.268,5.278c6.912,2.21,11.254,5.881,12.9,10.912,2.667,8.125-2.646,16.375-4.339,18.71C364.393,215.377,355.4,224.041,342.463,224.041Zm-13.637-49.833c-9.1,0-15.26,1.785-17.343,5.025-2.723,4.238-2.42,11.147.831,18.957,4.329,10.4,13.933,22.039,23.915,24.174a29.857,29.857,0,0,0,6.234.677c12.514,0,21.257-8.439,26.387-15.519,1.621-2.238,6.717-10.137,4.2-17.813-1.545-4.708-5.669-8.163-12.259-10.269A113.011,113.011,0,0,0,328.826,174.208Z" transform="translate(-308.645 -173.208)" fill="#4c494b"/>
      </g>
      <path id="Path_154257" data-name="Path 154257" d="M226.206,200.183a2.5,2.5,0,0,1-1.889-.184,1.978,1.978,0,0,1-1.038-1.577l-.46-3.781-.205-1.894-.1-.947a1.939,1.939,0,0,1,.1-.973,2.412,2.412,0,0,1,3.3-1.15l-.046.09a2.362,2.362,0,0,0-1.684.278,1.531,1.531,0,0,0-.841,1.055.975.975,0,0,0-.009.283c.016.043,0,.021.015.126l.015.118c0-.049.011.054.016.073l.168.94.264,1.886c.13,1.263.239,2.529.25,3.806-.114.849.79,1.791,2.121,1.753Z" transform="translate(-222.492 -169.75)" fill="#757385"/>
      <path id="Path_154258" data-name="Path 154258" d="M377.222,200.085c1.329.038,2.234-.905,2.119-1.753.011-1.277.119-2.543.249-3.806l.263-1.886.168-.94c.006-.019.02-.122.017-.074l.015-.118c.015-.1,0-.083.015-.126a.965.965,0,0,0-.008-.282,1.531,1.531,0,0,0-.841-1.055,2.363,2.363,0,0,0-1.684-.278l-.047-.09a2.411,2.411,0,0,1,3.3,1.15,1.95,1.95,0,0,1,.1.973l-.1.946-.2,1.894-.459,3.782A1.98,1.98,0,0,1,379.086,200a2.5,2.5,0,0,1-1.889.184Z" transform="translate(-222.492 -169.75)" fill="#757385"/>
      <path id="Path_154259" data-name="Path 154259" d="M261.039,227.582a31.688,31.688,0,0,1-14.345-3.414,41.03,41.03,0,0,1-11.7-9.059,38.893,38.893,0,0,1-8.065-12.4,21.7,21.7,0,0,1-.658-14.611,17.487,17.487,0,0,1,3.9-6.307,22.68,22.68,0,0,1,5.976-4.4,36.635,36.635,0,0,1,6.933-2.677q3.561-1.063,7.188-1.889a125,125,0,0,1,14.652-2.452,81.872,81.872,0,0,1,14.842-.35l-.008.1a81.489,81.489,0,0,0-14.779.775,125.623,125.623,0,0,0-14.533,2.685c-2.39.591-4.762,1.253-7.113,1.96a35.791,35.791,0,0,0-6.761,2.655,21.8,21.8,0,0,0-5.706,4.256,16.533,16.533,0,0,0-3.644,5.972,20.781,20.781,0,0,0,.568,13.969,30.614,30.614,0,0,0,3.295,6.419,59.681,59.681,0,0,0,4.49,5.778,40.574,40.574,0,0,0,11.367,9.113,31.391,31.391,0,0,0,14.109,3.786Z" transform="translate(-222.492 -169.75)" fill="#523b40"/>
      <path id="Path_154260" data-name="Path 154260" d="M297.324,194.034a49.257,49.257,0,0,1-5.088,12.18,56.715,56.715,0,0,1-7.861,10.622,38.1,38.1,0,0,1-10.495,7.983,28.883,28.883,0,0,1-12.84,2.763v-.1a38.793,38.793,0,0,0,6.477-1.061,23.678,23.678,0,0,0,6.02-2.3,39,39,0,0,0,10.114-7.977,59.765,59.765,0,0,0,7.91-10.323,54.283,54.283,0,0,0,3.142-5.736,53.047,53.047,0,0,0,2.524-6.079Z" transform="translate(-222.492 -169.75)" fill="#4c494b"/>
      <path id="Path_154261" data-name="Path 154261" d="M377.521,189.724a17.584,17.584,0,0,0-3.314-6,19.837,19.837,0,0,0-5.145-4.4,32.156,32.156,0,0,0-6.171-2.861c-2.169-.717-4.422-1.333-6.663-1.9-4.465-1.231-9.021-2.125-13.593-2.917-2.285-.408-4.585-.738-6.893-1.011-2.307-.322-4.625-.516-6.955-.709v-.1a100.942,100.942,0,0,1,13.957,1.052,124.868,124.868,0,0,1,13.736,2.719c2.259.594,4.5,1.24,6.714,2a29.2,29.2,0,0,1,6.294,3.068,20.349,20.349,0,0,1,5.141,4.734,16.987,16.987,0,0,1,2.988,6.3Z" transform="translate(-222.492 -169.75)" fill="#523b40"/>
      <path id="Path_154262" data-name="Path 154262" d="M335.277,226.709a36.961,36.961,0,0,0,8.048.342,30.927,30.927,0,0,0,7.813-1.472,36.253,36.253,0,0,0,13.537-8.06,49.179,49.179,0,0,0,5.5-5.779,40.788,40.788,0,0,0,4.446-6.587,27.132,27.132,0,0,0,2.7-7.452,21.056,21.056,0,0,0,.2-7.978l.1-.024c1.277,5.325.085,10.966-2.306,15.8a37.173,37.173,0,0,1-4.429,6.81,50.3,50.3,0,0,1-5.537,5.953,36.1,36.1,0,0,1-13.989,8.066,32.553,32.553,0,0,1-16.1.481Z" transform="translate(-222.492 -169.75)" fill="#4c494b"/>
      <path id="Path_154263" data-name="Path 154263" d="M306.268,194.126a54.547,54.547,0,0,0,2.191,5.233,52.46,52.46,0,0,0,2.618,4.989,63.324,63.324,0,0,0,6.424,9.193,48.679,48.679,0,0,0,7.94,7.849,31.871,31.871,0,0,0,4.661,3.083,26.943,26.943,0,0,0,5.175,2.236l-.02.1a27.53,27.53,0,0,1-10.273-4.789,45.938,45.938,0,0,1-8.252-7.839,58.266,58.266,0,0,1-6.34-9.461,48.291,48.291,0,0,1-4.222-10.567Z" transform="translate(-222.492 -169.75)" fill="#523b40"/>
    </g>
  </g>
</svg>
