<svg xmlns="http://www.w3.org/2000/svg" xmlns:xlink="http://www.w3.org/1999/xlink" width="194.23" height="69.738" viewBox="0 0 194.23 69.738">
  <defs>
    <radialGradient id="radial-gradient" cx="0.5" cy="0.5" r="4.742" gradientUnits="objectBoundingBox">
      <stop offset="0.01" stop-color="#664236"/>
      <stop offset="0.378" stop-color="#b9a9a3"/>
      <stop offset="0.602" stop-color="#e1dad8"/>
      <stop offset="0.866" stop-color="#fff"/>
    </radialGradient>
    <linearGradient id="linear-gradient" x1="0.5" x2="0.5" y2="1" gradientUnits="objectBoundingBox">
      <stop offset="0" stop-color="#d9d6db"/>
      <stop offset="1" stop-color="#f0f5f2"/>
    </linearGradient>
    <linearGradient id="linear-gradient-3" x1="1.093" y1="-0.097" x2="-1.532" y2="2.848" gradientUnits="objectBoundingBox">
      <stop offset="0" stop-color="#565656"/>
      <stop offset="1" stop-color="#898989"/>
    </linearGradient>
    <linearGradient id="linear-gradient-4" x1="11.745" y1="-1.714" x2="-0.136" y2="0.629" xlink:href="#linear-gradient-3"/>
    <linearGradient id="linear-gradient-5" x1="4.161" y1="-0.875" x2="-0.398" y2="0.775" xlink:href="#linear-gradient-3"/>
    <linearGradient id="linear-gradient-6" x1="-10.887" y1="-1.141" x2="1.504" y2="0.653" xlink:href="#linear-gradient-3"/>
    <linearGradient id="linear-gradient-7" x1="-1.499" y1="-0.16" x2="1.33" y2="0.774" xlink:href="#linear-gradient-3"/>
    <linearGradient id="linear-gradient-8" x1="-2.846" y1="-0.689" x2="4.519" y2="2.108" xlink:href="#linear-gradient-3"/>
    <linearGradient id="linear-gradient-9" x1="-0.037" y1="0.119" x2="2.634" y2="2.329" xlink:href="#linear-gradient-3"/>
    <linearGradient id="linear-gradient-10" x1="0.5" y1="-0.397" x2="0.5" y2="1.007" gradientUnits="objectBoundingBox">
      <stop offset="0" stop-color="#fff"/>
      <stop offset="1"/>
    </linearGradient>
  </defs>
  <g id="Group_143294" data-name="Group 143294" transform="translate(-3 -165.612)">
    <path id="Path_154167" data-name="Path 154167" d="M197.23,230.447c0,2.707-20.825,4.9-46.514,4.9s-46.517-2.2-46.517-4.9,20.824-4.9,46.517-4.9S197.23,227.738,197.23,230.447Z" fill="url(#radial-gradient)" style="mix-blend-mode: multiply;isolation: isolate"/>
    <path id="Path_154168" data-name="Path 154168" d="M96.03,230.447c0,2.707-20.825,4.9-46.513,4.9S3,233.154,3,230.447s20.824-4.9,46.517-4.9S96.03,227.738,96.03,230.447Z" fill="url(#radial-gradient)" style="mix-blend-mode: multiply;isolation: isolate"/>
    <g id="Group_143253" data-name="Group 143253">
      <path id="Path_154169" data-name="Path 154169" d="M86.92,169.677s-29.432,1.794-44.5,8.255-15.256,18.127-12.742,30.509,7.358,20.1,23.51,19.741,24.765-5.385,29.609-15.075,10.409-26.561,11.126-33.56A22.841,22.841,0,0,0,86.92,169.677Z" fill="url(#linear-gradient)"/>
      <path id="Path_154170" data-name="Path 154170" d="M114.141,169.677s29.431,1.794,44.507,8.255,15.254,18.127,12.742,30.509-7.359,20.1-23.51,19.741-24.766-5.385-29.611-15.075-10.408-26.561-11.125-33.56A22.843,22.843,0,0,1,114.141,169.677Z" fill="url(#linear-gradient)"/>
      <g id="Group_143249" data-name="Group 143249">
        <g id="Group_143248" data-name="Group 143248">
          <path id="Path_154171" data-name="Path 154171" d="M175.979,196.764a9.394,9.394,0,0,1-1.442,13.214l-.1-.018c.055-.29.122-.591.177-.88a52.372,52.372,0,0,0,1.255-12.316Z" fill="#111"/>
          <path id="Path_154172" data-name="Path 154172" d="M26.506,209.08c.057.3.122.6.187.9a9.4,9.4,0,0,1-1.442-13.214A52.478,52.478,0,0,0,26.506,209.08Z" fill="#111"/>
          <path id="Path_154173" data-name="Path 154173" d="M105,180.89a2.155,2.155,0,0,1-2.153,2.154H98.274a2.155,2.155,0,0,1-2.154-2.154v-11.6c.7-.019,1.424-.019,2.154-.019V180.89h4.571V169.276c.73.01,1.451.019,2.153.038Z" fill="#c4baad"/>
          <path id="Path_154174" data-name="Path 154174" d="M82.793,213.107c4.842-9.693,10.4-26.561,11.126-33.557a22.8,22.8,0,0,0-7-9.871s-29.436,1.789-44.5,8.251-15.256,18.131-12.746,30.513,7.361,20.1,23.507,19.742S77.951,222.8,82.793,213.107ZM105,180.89V169.314c-.7-.019-1.423-.028-2.153-.038-1.518-.018-3.054-.018-4.571-.009-.73,0-1.452,0-2.154.019v11.6a2.155,2.155,0,0,0,2.154,2.154h4.571A2.155,2.155,0,0,0,105,180.89Zm2.146-1.34c.72,7,6.284,23.864,11.126,33.557s13.457,14.713,29.613,15.078,21-7.361,23.508-19.742,2.332-24.05-12.746-30.513-44.506-8.251-44.506-8.251A22.806,22.806,0,0,0,107.144,179.55Zm68.723,17.214a52.372,52.372,0,0,1-1.255,12.316c-.055.289-.122.59-.177.88-2.426,11.257-7.381,21.466-25.437,21.466-.375,0-.75-.01-1.133-.018-16.783-.365-26.786-5.574-32.424-16.859-3.016-6.022-6.022-14.7-8.542-22.15-1.32-3.876-3.109-6.386-6.339-6.386s-5.03,2.51-6.341,6.386c-2.52,7.446-5.526,16.128-8.541,22.15-5.639,11.285-15.641,16.494-32.424,16.859-.384.008-.759.018-1.133.018-9.263,0-15.079-2.688-18.871-6.819-3.6-3.923-5.386-9.15-6.557-14.629-.065-.3-.13-.6-.187-.9a52.478,52.478,0,0,1-1.255-12.316c.328-8.625,4.009-16.708,15.894-21.8,15.406-6.6,44.355-8.438,45.582-8.5,6.049-.449,12.662-.777,13.833-.777s7.782.328,13.833.777c1.226.066,30.166,1.9,45.581,8.5C171.859,180.056,175.54,188.139,175.867,196.764Z" fill="#3a3435"/>
        </g>
      </g>
      <g id="Group_143250" data-name="Group 143250">
        <path id="Path_154175" data-name="Path 154175" d="M172.516,196.2a41.4,41.4,0,0,1-.694,9.965c-1.957-.01-9.813-.056-20.237-.112h-.019c-6.2-2.389-13.946-4.4-27.4-5.976-2.791-.318-7.84-.767-11.772-1.04-.151-.439-.31-.889-.459-1.329C137.48,196.669,168.809,196.256,172.516,196.2Z" fill="url(#linear-gradient-3)"/>
        <path id="Path_154176" data-name="Path 154176" d="M34.639,226.076l-.141.151c-7.175,7.238-8.9,5.355-11.933,3.566-2.555-1.5-1.965-5.121,6.66-10.779l.243-.112a22.138,22.138,0,0,0,3.775,5.807A17.679,17.679,0,0,0,34.639,226.076Z" fill="url(#linear-gradient-4)"/>
        <path id="Path_154177" data-name="Path 154177" d="M51.722,206.2c4.654-.027,9.833-.056,15.255-.093-17.111,5.1-22.936,12.016-29.895,17.786a18.535,18.535,0,0,1-5.028-7.157l.486-.14c10.068-7.379,15.078-8.784,19.171-10.4Z" fill="url(#linear-gradient-5)"/>
      </g>
      <g id="Group_143251" data-name="Group 143251">
        <path id="Path_154178" data-name="Path 154178" d="M172.5,216.879c8.99,4.918,10.031,8.42,6.667,10.781-2.894,2.031-5.674,2.987-11.311-2.941a24.033,24.033,0,0,0,4.634-7.848Z" fill="url(#linear-gradient-6)"/>
        <path id="Path_154179" data-name="Path 154179" d="M151.566,206.053h.019c4.411,1.7,8.044,3.577,12.382,5.6A48.175,48.175,0,0,1,169.66,215h.01a21.036,21.036,0,0,1-4.524,7.781c-1.657-1.123-4.926-3.716-7.615-5.964-11.322-9.469-20.06-11.765-32.8-11.324-1.89.066-5.535-.132-9.945-.1-.824-2.052-1.63-4.2-2.4-6.351,3.932.273,8.981.722,11.772,1.04C137.62,201.651,145.365,203.664,151.566,206.053Z" fill="url(#linear-gradient-7)"/>
        <path id="Path_154180" data-name="Path 154180" d="M92.433,197.708l8.288.477h.037l8.241.468c.825,2.341,1.678,4.7,2.548,6.979h-22C90.54,203.056,91.5,200.358,92.433,197.708Z" fill="url(#linear-gradient-8)"/>
        <path id="Path_154181" data-name="Path 154181" d="M89.117,197.708c-.927,2.679-1.929,5.376-2.96,7.924-7.38.056-11.865.421-19.18.477-5.422.037-10.6.066-15.255.093h-.011c-11.416.067-19.592.1-19.957.1H29.5l-.243.048a42.149,42.149,0,0,1-.73-10.031C29.5,196.331,62.275,196.621,89.117,197.708Z" fill="url(#linear-gradient-9)"/>
      </g>
      <path id="Path_154182" data-name="Path 154182" d="M145.613,176.624c11.934,2.552,24.217,8.516,24.622,18.977s-3.326,23.266-9.288,27.69-28.67,1.75-28.67,0,20.869-.387,21.4-13.865-12.945-14.67-13.809-17.092S144.13,176.307,145.613,176.624Z" fill="url(#linear-gradient-10)" style="mix-blend-mode: screen;isolation: isolate"/>
      <path id="Path_154183" data-name="Path 154183" d="M55.436,176.624C43.5,179.176,31.219,185.14,30.815,195.6s3.325,23.266,9.287,27.69,28.669,1.75,28.669,0S47.9,222.9,47.37,209.426s12.945-14.67,13.808-17.092S56.919,176.307,55.436,176.624Z" fill="url(#linear-gradient-10)" style="mix-blend-mode: screen;isolation: isolate"/>
      <path id="Path_154184" data-name="Path 154184" d="M53.181,228.133a61.846,61.846,0,0,0,8.725-1.121,38.01,38.01,0,0,0,8.286-2.6,24.824,24.824,0,0,0,7.019-4.84A25.23,25.23,0,0,0,82.09,212.6,165.859,165.859,0,0,0,88.7,196.35c.971-2.765,1.836-5.565,2.7-8.362a58.69,58.69,0,0,0,2.014-8.493l.019.2a21.375,21.375,0,0,0-1.109-2.748,23.314,23.314,0,0,0-1.488-2.621,23.878,23.878,0,0,0-3.944-4.609l.064-.077a24.116,24.116,0,0,1,4.165,4.481,21.379,21.379,0,0,1,2.863,5.409l0,.012,0,.014a59.048,59.048,0,0,1-1.83,8.642c-.78,2.841-1.659,5.653-2.6,8.444a137.016,137.016,0,0,1-6.611,16.38A26.136,26.136,0,0,1,77.82,220.2a24.215,24.215,0,0,1-7.346,4.864c-5.447,2.341-11.424,3.027-17.29,3.169Z" fill="#e0dede"/>
      <path id="Path_154185" data-name="Path 154185" d="M86.925,169.752c-4.821.617-9.633,1.231-14.412,2.047-4.787.738-9.554,1.588-14.257,2.661a102.276,102.276,0,0,0-13.8,3.977c-4.382,1.7-8.511,4.173-11.168,7.835-2.761,3.586-3.72,8.278-3.577,12.949a49.376,49.376,0,0,0,.745,7.064c.422,2.358.865,4.707,1.5,6.983a25.37,25.37,0,0,0,2.712,6.451,15.4,15.4,0,0,0,4.8,4.924,19.331,19.331,0,0,0,6.53,2.64,40.752,40.752,0,0,0,7.18.824l0,.151a36.9,36.9,0,0,1-7.271-.486,20.048,20.048,0,0,1-6.85-2.452,16.141,16.141,0,0,1-5.208-5.064,26.3,26.3,0,0,1-3-6.643,60.167,60.167,0,0,1-1.67-7.1,50.678,50.678,0,0,1-.831-7.249A26.723,26.723,0,0,1,29.019,192a18.448,18.448,0,0,1,3.067-6.616c2.941-3.972,7.362-6.507,11.882-8.22a91.088,91.088,0,0,1,14.056-3.846A233.827,233.827,0,0,1,86.915,169.6Z" fill="#111"/>
      <path id="Path_154186" data-name="Path 154186" d="M147.879,228.232c-5.866-.142-11.844-.828-17.291-3.169a24.227,24.227,0,0,1-7.346-4.864,26.13,26.13,0,0,1-5.12-7.179,136.775,136.775,0,0,1-6.61-16.38c-.944-2.791-1.822-5.6-2.6-8.444a59.311,59.311,0,0,1-1.83-8.642l0-.014,0-.012a21.4,21.4,0,0,1,2.861-5.408,24.159,24.159,0,0,1,4.165-4.482l.065.077a23.8,23.8,0,0,0-3.943,4.609,23.323,23.323,0,0,0-1.489,2.621,21.225,21.225,0,0,0-1.108,2.748l.018-.2a59.085,59.085,0,0,0,2.014,8.493c.862,2.8,1.727,5.6,2.7,8.363a166.078,166.078,0,0,0,6.609,16.249,25.182,25.182,0,0,0,4.88,6.976,24.819,24.819,0,0,0,7.018,4.84,38.027,38.027,0,0,0,8.286,2.6,61.883,61.883,0,0,0,8.725,1.121Z" fill="#1e1d1d"/>
      <path id="Path_154187" data-name="Path 154187" d="M114.144,169.627a233.518,233.518,0,0,1,28.885,3.725,90.99,90.99,0,0,1,14.048,3.849c4.516,1.714,8.928,4.247,11.858,8.209a18.369,18.369,0,0,1,3.063,6.6,26.749,26.749,0,0,1,.671,7.255,50.62,50.62,0,0,1-.827,7.243,60.255,60.255,0,0,1-1.666,7.1,26.311,26.311,0,0,1-3,6.634,16.1,16.1,0,0,1-5.2,5.057,19.962,19.962,0,0,1-6.838,2.451,36.766,36.766,0,0,1-7.266.488l0-.1a36.423,36.423,0,0,0,7.209-.7,19.548,19.548,0,0,0,6.622-2.593,15.6,15.6,0,0,0,4.921-4.963,25.565,25.565,0,0,0,2.8-6.508,68.291,68.291,0,0,0,1.555-7.018,49.812,49.812,0,0,0,.77-7.12,25.781,25.781,0,0,0-.689-7A17.408,17.408,0,0,0,168.133,186c-2.742-3.755-6.959-6.245-11.382-7.952a98.157,98.157,0,0,0-13.876-3.937c-4.722-1.036-9.5-1.85-14.3-2.548-4.791-.744-9.606-1.373-14.439-1.84Z" fill="#e0dede"/>
      <g id="Group_143252" data-name="Group 143252">
        <path id="Path_154188" data-name="Path 154188" d="M103.279,181.392H97.7V169.183h1v11.209h3.577V169.183h1Z" fill="#d8d6ce"/>
      </g>
      <path id="Path_154189" data-name="Path 154189" d="M25.224,196.794a12.766,12.766,0,0,0-1.083,3.4,12.729,12.729,0,0,0,.73,6.658,13.423,13.423,0,0,0,1.785,3.09l-.06.08a9.15,9.15,0,0,1-3.529-6.342,9.035,9.035,0,0,1,2.08-6.946Z" fill="#7c7876"/>
      <path id="Path_154190" data-name="Path 154190" d="M175.947,196.73a9.032,9.032,0,0,1,2.081,6.946,9.149,9.149,0,0,1-3.528,6.342l-.06-.08a13.444,13.444,0,0,0,1.785-3.091,12.736,12.736,0,0,0,.729-6.657,12.719,12.719,0,0,0-1.083-3.4Z" fill="#7c7876"/>
      <path id="Path_154191" data-name="Path 154191" d="M100.493,186.082a5.027,5.027,0,0,0-3.948,1.86,12.756,12.756,0,0,0-2.129,3.99c-.982,2.888-1.955,5.786-2.98,8.662s-2.087,5.743-3.25,8.57a57.467,57.467,0,0,1-4.008,8.252,27.124,27.124,0,0,1-6.068,6.865,28.652,28.652,0,0,1-8.008,4.446c-5.771,2.117-11.958,2.713-18.052,2.771v-.15a85.142,85.142,0,0,0,9.033-1.248,41.774,41.774,0,0,0,8.613-2.463,30.45,30.45,0,0,0,7.56-4.418,25.756,25.756,0,0,0,5.652-6.6,56.686,56.686,0,0,0,4.015-7.98c1.212-2.772,2.241-5.629,3.413-8.441,1.142-2.829,2.215-5.663,3.333-8.537a13.476,13.476,0,0,1,2.5-4.047,5.831,5.831,0,0,1,1.987-1.372,5.237,5.237,0,0,1,2.333-.312Z" fill="#111"/>
      <path id="Path_154192" data-name="Path 154192" d="M147.794,231.459a51.074,51.074,0,0,1-17.7-3.074,27.934,27.934,0,0,1-7.745-4.592,27.62,27.62,0,0,1-5.8-6.889,63.226,63.226,0,0,1-3.874-8.151c-1.137-2.785-2.182-5.606-3.189-8.438s-1.965-5.686-2.939-8.526a12.436,12.436,0,0,0-2.135-3.918,5.038,5.038,0,0,0-3.921-1.814v-.1a5.225,5.225,0,0,1,2.263.352,5.65,5.65,0,0,1,1.9,1.343,12.862,12.862,0,0,1,2.382,3.956l3.176,8.445c1.1,2.79,2.132,5.6,3.3,8.355a62.489,62.489,0,0,0,3.888,7.981,26.747,26.747,0,0,0,5.536,6.709,28.916,28.916,0,0,0,7.447,4.562,40.132,40.132,0,0,0,8.5,2.522,75.8,75.8,0,0,0,8.906,1.177Z" fill="#7c7876"/>
      <path id="Path_154193" data-name="Path 154193" d="M171.03,182.823a21.124,21.124,0,0,1,3.83,7.329,28.24,28.24,0,0,1,1.074,8.221,51,51,0,0,1-.794,8.264,65.057,65.057,0,0,1-1.857,8.1,28.9,28.9,0,0,1-3.485,7.536,19.092,19.092,0,0,1-5.963,5.742,23.2,23.2,0,0,1-7.768,2.877,39.421,39.421,0,0,1-8.273.6l0-.15a44.678,44.678,0,0,0,8.119-1.223,22.338,22.338,0,0,0,7.31-3.093,19.451,19.451,0,0,0,5.438-5.51,27.548,27.548,0,0,0,3.187-7.223,64.449,64.449,0,0,0,1.941-7.881,63.639,63.639,0,0,0,.973-8.039,27.59,27.59,0,0,0-.667-7.989,22.124,22.124,0,0,0-3.188-7.461Z" fill="#111"/>
      <path id="Path_154194" data-name="Path 154194" d="M52.049,231.473a30.466,30.466,0,0,1-13.016-2.506,19.022,19.022,0,0,1-5.437-3.842,21.4,21.4,0,0,1-3.837-5.445,46.879,46.879,0,0,1-3.8-12.76,42.375,42.375,0,0,1-.567-13.3,23.378,23.378,0,0,1,1.842-6.41,21,21,0,0,1,3.71-5.54,30.388,30.388,0,0,1,11.134-7.219,84.852,84.852,0,0,1,12.8-3.771c4.346-.964,8.733-1.723,13.136-2.36s8.825-1.138,13.256-1.54,8.871-.669,13.312-.925c2.223-.1,4.438-.28,6.672-.241,2.224.081,4.444.205,6.664.334,4.439.274,8.879.558,13.307.992a207.526,207.526,0,0,1,26.355,4.107,74.871,74.871,0,0,1,12.714,4.02,28.065,28.065,0,0,1,10.721,7.768l-.078.062a27.847,27.847,0,0,0-10.77-7.544,74.463,74.463,0,0,0-12.707-3.795,208.557,208.557,0,0,0-26.31-3.846c-2.209-.194-4.422-.363-6.628-.49l-6.654-.411c-2.215-.121-4.438-.237-6.643-.311-2.118-.031-4.4.157-6.593.264-4.428.269-8.867.558-13.276.966s-8.817.936-13.2,1.579c-4.384.623-8.753,1.361-13.07,2.3A84.009,84.009,0,0,0,42.414,175.3a29.509,29.509,0,0,0-10.837,6.963,21.16,21.16,0,0,0-5.416,11.472,41.7,41.7,0,0,0,.441,13.071,46.581,46.581,0,0,0,3.628,12.635A20.955,20.955,0,0,0,33.9,224.83a18.689,18.689,0,0,0,5.271,3.852,30.27,30.27,0,0,0,12.883,2.691Z" fill="#7c7876"/>
      <path id="Path_154195" data-name="Path 154195" d="M86.845,169.6a32.033,32.033,0,0,1,6.782-1.353,65.223,65.223,0,0,1,6.839-.34,67.952,67.952,0,0,1,6.834.384,36.617,36.617,0,0,1,6.779,1.309l-.012.15c-4.526-.3-9.069-.338-13.606-.344-2.269-.019-4.538-.017-6.807.023s-4.538.1-6.794.321Z" fill="#111"/>
      <path id="Path_154196" data-name="Path 154196" d="M104.97,169.183c.145,1.448.207,2.9.313,4.344l.177,4.345c.034.724.059,1.448.061,2.172,0,.379.025.687,0,1.124a2.739,2.739,0,0,1-.48,1.323,2.816,2.816,0,0,1-2.377,1.2l-2.172.028-2.173-.029a2.819,2.819,0,0,1-2.376-1.2,2.783,2.783,0,0,1-.478-1.295,5.624,5.624,0,0,1-.01-.608l.007-.544c0-.724.03-1.448.062-2.172l.178-4.345c.105-1.448.167-2.9.31-4.344h.075l.019,8.689,0,2.172c.007.359-.012.732.016,1.079a2.095,2.095,0,0,0,2.192,1.852l2.173-.005,2.172.005a2.1,2.1,0,0,0,2.192-1.849c.029-.353.01-.721.017-1.082l0-2.172.018-8.689Z" fill="#111"/>
    </g>
  </g>
</svg>
