<svg xmlns="http://www.w3.org/2000/svg" xmlns:xlink="http://www.w3.org/1999/xlink" width="172.539" height="78.12" viewBox="0 0 172.539 78.12">
  <defs>
    <radialGradient id="radial-gradient" cx="0.5" cy="0.5" r="3.212" gradientUnits="objectBoundingBox">
      <stop offset="0.01" stop-color="#664236"/>
      <stop offset="0.343" stop-color="#b9a9a3"/>
      <stop offset="0.567" stop-color="#e1dad8"/>
      <stop offset="0.866" stop-color="#fff"/>
    </radialGradient>
    <linearGradient id="linear-gradient" y1="0.5" x2="1" y2="0.5" gradientUnits="objectBoundingBox">
      <stop offset="0"/>
      <stop offset="0.189" stop-color="#666"/>
      <stop offset="0.378" stop-color="#686868"/>
      <stop offset="0.711" stop-color="#9b9b9b"/>
    </linearGradient>
    <linearGradient id="linear-gradient-2" y1="0.5" x2="1" y2="0.5" gradientUnits="objectBoundingBox">
      <stop offset="0.289" stop-color="#9b9b9b"/>
      <stop offset="0.622" stop-color="#686868"/>
      <stop offset="0.811" stop-color="#666"/>
      <stop offset="1"/>
    </linearGradient>
    <linearGradient id="linear-gradient-3" y1="0.5" x2="1" y2="0.5" gradientUnits="objectBoundingBox">
      <stop offset="0"/>
      <stop offset="0.139" stop-color="#606060"/>
      <stop offset="0.358" stop-color="#6d6d6d"/>
      <stop offset="0.512" stop-color="#878787"/>
      <stop offset="0.682" stop-color="#707070"/>
      <stop offset="0.846" stop-color="#5e5e5e"/>
      <stop offset="1"/>
    </linearGradient>
    <linearGradient id="linear-gradient-4" x1="0.5" x2="0.5" y2="1" gradientUnits="objectBoundingBox">
      <stop offset="0" stop-color="#d9d6db"/>
      <stop offset="1" stop-color="#f0f5f2"/>
    </linearGradient>
    <linearGradient id="linear-gradient-6" x1="-0.879" y1="0.742" x2="25.326" y2="-3.774" gradientUnits="objectBoundingBox">
      <stop offset="0" stop-color="#403b40"/>
      <stop offset="1" stop-color="#0f2121"/>
    </linearGradient>
    <linearGradient id="linear-gradient-7" x1="-84.318" y1="0.742" x2="-58.114" y2="-3.774" xlink:href="#linear-gradient-6"/>
    <linearGradient id="linear-gradient-8" x1="-0.301" y1="0.713" x2="4.314" y2="-0.785" xlink:href="#linear-gradient-6"/>
    <linearGradient id="linear-gradient-9" x1="-1.521" y1="2.438" x2="1.048" y2="0.072" xlink:href="#linear-gradient-6"/>
    <linearGradient id="linear-gradient-10" x1="-1.662" y1="-0.286" x2="1.204" y2="0.757" gradientUnits="objectBoundingBox">
      <stop offset="0" stop-color="#0f2121"/>
      <stop offset="1" stop-color="#403b40"/>
    </linearGradient>
    <linearGradient id="linear-gradient-11" x1="-4.873" y1="-1.101" x2="5.854" y2="2.24" xlink:href="#linear-gradient-10"/>
    <linearGradient id="linear-gradient-12" x1="-0.168" y1="-0.005" x2="2.543" y2="2.357" xlink:href="#linear-gradient-10"/>
    <linearGradient id="linear-gradient-13" x1="0.5" y1="-0.646" x2="0.5" y2="1.013" gradientUnits="objectBoundingBox">
      <stop offset="0" stop-color="#fff"/>
      <stop offset="1"/>
    </linearGradient>
    <linearGradient id="linear-gradient-15" x1="0.5" y1="-0.359" x2="0.5" y2="1.001" xlink:href="#linear-gradient-13"/>
    <linearGradient id="linear-gradient-16" x1="0.5" y1="-0.339" x2="0.5" y2="0.974" xlink:href="#linear-gradient-13"/>
  </defs>
  <g id="Group_143232" data-name="Group 143232" transform="translate(-430.144 -298.356)">
    <path id="Path_154057" data-name="Path 154057" d="M507.56,360.357c0,3.224-16.788,5.837-37.5,5.837s-37.5-2.613-37.5-5.837,16.79-5.836,37.5-5.836S507.56,357.132,507.56,360.357Z" transform="translate(0.443 10.282)" fill="url(#radial-gradient)" style="mix-blend-mode: multiply;isolation: isolate"/>
    <path id="Path_154058" data-name="Path 154058" d="M585.662,360.357c0,3.224-16.79,5.837-37.5,5.837s-37.5-2.613-37.5-5.837,16.789-5.836,37.5-5.836S585.662,357.132,585.662,360.357Z" transform="translate(14.741 10.282)" fill="url(#radial-gradient)" style="mix-blend-mode: multiply;isolation: isolate"/>
    <g id="Group_143231" data-name="Group 143231" transform="translate(430.144 298.356)">
      <path id="Path_154059" data-name="Path 154059" d="M571.435,324.447a36.28,36.28,0,0,1,.05,11.249l.052.009a3,3,0,0,0,.416.027h0a2.276,2.276,0,0,0,2.509-1.922v-7.486a2.276,2.276,0,0,0-2.509-1.92h0a3.191,3.191,0,0,0-.467.032Z" transform="translate(-404.279 -293.588)" fill="url(#linear-gradient)"/>
      <path id="Path_154060" data-name="Path 154060" d="M434.811,324.435a3.176,3.176,0,0,0-.466-.032h0a2.275,2.275,0,0,0-2.509,1.92v7.486a2.275,2.275,0,0,0,2.509,1.922h0a3.011,3.011,0,0,0,.415-.027,36.278,36.278,0,0,1,.051-11.27Z" transform="translate(-429.835 -293.588)" fill="url(#linear-gradient-2)"/>
      <g id="Group_143226" data-name="Group 143226" transform="translate(74.839 23.131)">
        <path id="Path_154061" data-name="Path 154061" d="M515.855,320.246a32.954,32.954,0,0,0-11.386-2.338,31.2,31.2,0,0,0-11.066,2.338,36.18,36.18,0,0,1,1.252,17.3c1.058,0,2.234-1.375,4.26-6.126s3.951-5.5,5.555-5.5,3.524.747,5.553,5.5,3.522,6.126,4.58,6.126a36.209,36.209,0,0,1,1.253-17.3Z" transform="translate(-493.403 -317.908)" fill="url(#linear-gradient-3)"/>
      </g>
      <path id="Path_154062" data-name="Path 154062" d="M546.933,370.959a36.052,36.052,0,1,1,36.05-36.052A36.092,36.092,0,0,1,546.933,370.959Z" transform="translate(-415.364 -298.264)" fill="#1c171f"/>
      <path id="Path_154063" data-name="Path 154063" d="M470.009,370.959a36.052,36.052,0,1,1,36.049-36.052A36.092,36.092,0,0,1,470.009,370.959Z" transform="translate(-429.446 -298.264)" fill="#1c171f"/>
      <path id="Path_154064" data-name="Path 154064" d="M501.483,334.173a32.205,32.205,0,1,1-32.2-32.2A32.207,32.207,0,0,1,501.483,334.173Z" transform="translate(-428.876 -297.695)" fill="url(#linear-gradient-4)"/>
      <path id="Path_154065" data-name="Path 154065" d="M578.408,334.173a32.2,32.2,0,1,1-32.2-32.2A32.206,32.206,0,0,1,578.408,334.173Z" transform="translate(-414.793 -297.695)" fill="url(#linear-gradient-4)"/>
      <path id="Path_154066" data-name="Path 154066" d="M503.617,324.68c-1.6,0-3.526.747-5.555,5.5a7.025,7.025,0,0,1,11.108,0C507.141,325.427,505.218,324.68,503.617,324.68Z" transform="translate(-417.711 -293.537)" fill="#999"/>
      <g id="Group_143228" data-name="Group 143228" transform="translate(0.023 31.143)">
        <g id="Group_143227" data-name="Group 143227">
          <path id="Path_154067" data-name="Path 154067" d="M445.2,351.785c-7.873,7.943-9.933,6.139-13.1,3.916-3.694-2.592-2.554-6.437,7.309-11.833A41.736,41.736,0,0,0,445.2,351.785Z" transform="translate(-430.163 -321.167)" fill="url(#linear-gradient-6)"/>
          <path id="Path_154068" data-name="Path 154068" d="M563.273,351.785c7.875,7.943,9.933,6.139,13.1,3.916,3.694-2.592,2.553-6.437-7.31-11.833A41.633,41.633,0,0,1,563.273,351.785Z" transform="translate(-405.795 -321.167)" fill="url(#linear-gradient-7)"/>
          <path id="Path_154069" data-name="Path 154069" d="M476.155,333.875c-7.611,1.459-14.451,4.893-22.476,11.582a88.745,88.745,0,0,1-7.408,5.7,32.066,32.066,0,0,1-5.76-7.986,43.507,43.507,0,0,1,6.1-3.371c4.5-2.1,8.3-4.051,12.79-5.823h.013C464.52,333.951,470.2,333.913,476.155,333.875Z" transform="translate(-428.269 -322.997)" fill="url(#linear-gradient-8)"/>
          <path id="Path_154070" data-name="Path 154070" d="M577.795,324.68a30.66,30.66,0,0,1,.5,5.621,32.277,32.277,0,0,1-.439,5.321c-1.886-.014-10.652-.064-22.349-.127H555.5c-6.8-2.617-15.305-4.83-30.083-6.553-3.055-.353-6.854-.692-11.168-.993.038-.516.089-1.033.151-1.547C542.428,325.259,573.719,324.742,577.795,324.68Z" transform="translate(-414.771 -324.68)" fill="url(#linear-gradient-9)"/>
          <path id="Path_154071" data-name="Path 154071" d="M574.865,344.271a32.088,32.088,0,0,1-5.747,8c-1.823-1.233-4.112-3.006-7.068-5.472-12.427-10.388-22.01-12.9-35.995-12.426-2.214.075-6.263.151-11.533.226a33.365,33.365,0,0,1-.353-4.8c0-.791.025-1.571.088-2.351,4.315.3,8.113.64,11.168.993,14.778,1.723,23.279,3.936,30.083,6.553h.013c4.842,1.862,8.829,3.924,13.6,6.151A45.6,45.6,0,0,1,574.865,344.271Z" transform="translate(-414.785 -324.174)" fill="url(#linear-gradient-10)"/>
          <path id="Path_154072" data-name="Path 154072" d="M509.637,329.851a25.924,25.924,0,0,0,2.5,4.868c-4.867.063-10.375.114-16.212.163a24.9,24.9,0,0,0,2.641-5.032,7,7,0,0,1,11.069,0Z" transform="translate(-418.124 -324.23)" fill="url(#linear-gradient-11)"/>
          <path id="Path_154073" data-name="Path 154073" d="M476.7,335.537c-5.951.038-11.634.076-16.742.1h-.013c-12.525.076-21.506.114-21.908.114h-.012a32.567,32.567,0,0,1-.465-5.472,31.418,31.418,0,0,1,.477-5.484c.781.013,33.857.529,63.437,1.724a31.07,31.07,0,0,1,.226,3.76,32.265,32.265,0,0,1-.4,5.081C493.193,335.423,484.718,335.474,476.7,335.537Z" transform="translate(-428.81 -324.659)" fill="url(#linear-gradient-12)"/>
        </g>
      </g>
      <path id="Path_154074" data-name="Path 154074" d="M501.735,334.333a32.32,32.32,0,1,1-9.444-22.85A32.3,32.3,0,0,1,501.735,334.333Zm-.179,0a31.984,31.984,0,0,0-9.562-22.554,31.421,31.421,0,0,0-34.453-6.172,31.74,31.74,0,0,0-9.9,6.927,31.365,31.365,0,0,0,0,43.6,31.873,31.873,0,0,0,9.9,6.922,31.424,31.424,0,0,0,34.45-6.164A31.986,31.986,0,0,0,501.556,334.333Z" transform="translate(-428.879 -297.69)" fill="#3f3f3f"/>
      <path id="Path_154075" data-name="Path 154075" d="M523.52,357.172a32.311,32.311,0,1,1,22.834,9.482A32.3,32.3,0,0,1,523.52,357.172Zm.125-.125a31.986,31.986,0,0,0,22.709,9.189,31.3,31.3,0,0,0,30.83-31.9,31.364,31.364,0,0,0-30.831-30.825,31.907,31.907,0,0,0-11.895,2.108,31.414,31.414,0,0,0-20,28.717A31.984,31.984,0,0,0,523.646,357.046Z" transform="translate(-414.786 -297.693)" fill="#3f3f3f"/>
      <path id="Path_154076" data-name="Path 154076" d="M486.637,350.262c-1.313,1.989-2.959,1.578-1.938-.827a38.828,38.828,0,0,0,2.584-13.974c0-8.748-1.915-14.722-6.476-22.033-3.328-5.338-2.628-6.049.483-3.459a29.2,29.2,0,0,1,10.9,23.006A30.968,30.968,0,0,1,486.637,350.262Z" transform="translate(-421.271 -296.496)" fill="url(#linear-gradient-13)" style="mix-blend-mode: screen;isolation: isolate"/>
      <path id="Path_154077" data-name="Path 154077" d="M521.364,350.264c1.313,1.988,2.958,1.578,1.939-.828a38.8,38.8,0,0,1-2.586-13.974c0-8.749,1.918-14.721,6.477-22.033,3.328-5.338,2.629-6.049-.483-3.459a29.2,29.2,0,0,0-10.9,23.006A30.974,30.974,0,0,0,521.364,350.264Z" transform="translate(-414.462 -296.496)" fill="url(#linear-gradient-13)" style="mix-blend-mode: screen;isolation: isolate"/>
      <path id="Path_154078" data-name="Path 154078" d="M458.794,361.829c3.392.852,6.113-.609,5.375-1.821-5.395-8.854-11.644-16.889-11.644-27.761a38.805,38.805,0,0,1,11.486-27.609,29.724,29.724,0,0,0-24.7,29.292C439.307,346.745,449.572,359.515,458.794,361.829Z" transform="translate(-428.467 -297.206)" fill="url(#linear-gradient-15)" style="mix-blend-mode: screen;isolation: isolate"/>
      <path id="Path_154079" data-name="Path 154079" d="M535.869,362.878a22.673,22.673,0,0,0,7,.841,29.723,29.723,0,1,0-9.577-57.859,38.8,38.8,0,0,1,10.374,26.453c0,9.77-4.448,18.045-9.543,25.534C533.377,358.947,531.494,361.155,535.869,362.878Z" transform="translate(-411.301 -297.273)" fill="url(#linear-gradient-16)" style="mix-blend-mode: screen;isolation: isolate"/>
      <g id="Group_143229" data-name="Group 143229" transform="translate(3.919)">
        <path id="Path_154080" data-name="Path 154080" d="M470.1,371.642A36.643,36.643,0,1,1,506.741,335,36.685,36.685,0,0,1,470.1,371.642Zm0-72.1A35.46,35.46,0,1,0,505.558,335,35.5,35.5,0,0,0,470.1,299.539Z" transform="translate(-433.457 -298.356)" fill="#7a6e75"/>
      </g>
      <g id="Group_143230" data-name="Group 143230" transform="translate(94.928)">
        <path id="Path_154081" data-name="Path 154081" d="M547.024,371.642A36.643,36.643,0,1,1,583.667,335,36.683,36.683,0,0,1,547.024,371.642Zm0-72.1A35.46,35.46,0,1,0,582.484,335,35.5,35.5,0,0,0,547.024,299.539Z" transform="translate(-510.383 -298.356)" fill="#7a6e75"/>
      </g>
      <path id="Path_154082" data-name="Path 154082" d="M434.908,335.908a2.866,2.866,0,0,1-2.131.1,2.408,2.408,0,0,1-1.639-1.944,33.21,33.21,0,0,1,.007-7.775,2.419,2.419,0,0,1,1.686-1.906,2.884,2.884,0,0,1,2.128.136l-.017.115a3.119,3.119,0,0,0-1.826.3,1.826,1.826,0,0,0-1.045,1.413l.021,3.834-.022,3.834a1.782,1.782,0,0,0,1,1.437,3.059,3.059,0,0,0,1.82.331Z" transform="translate(-430.003 -293.617)" fill="#7a6e75"/>
      <path id="Path_154083" data-name="Path 154083" d="M438.514,344.329c-.828.671-1.669,1.287-2.49,1.924s-1.654,1.241-2.406,1.934a14.846,14.846,0,0,0-2.158,2.115A4.789,4.789,0,0,0,430.233,353l-.059.007a4.28,4.28,0,0,1,.91-2.962,12.883,12.883,0,0,1,2.151-2.3,29.752,29.752,0,0,1,5.253-3.462Z" transform="translate(-430.144 -289.95)" fill="#7a6e75"/>
      <path id="Path_154084" data-name="Path 154084" d="M563.3,350.457c.73.515,1.4,1.064,2.082,1.6s1.319,1.1,2.014,1.6a22.345,22.345,0,0,0,2.04,1.513,10.418,10.418,0,0,0,2.263,1.188l-.006.058a6.8,6.8,0,0,1-2.476-.842,16.216,16.216,0,0,1-2.186-1.451,30.174,30.174,0,0,1-3.776-3.631Z" transform="translate(-405.776 -288.818)" fill="#7a6e75"/>
      <path id="Path_154085" data-name="Path 154085" d="M509.172,329.958a7.043,7.043,0,0,0-11.06,0l-.049-.034a6.027,6.027,0,0,1,2.308-2.351,6.476,6.476,0,0,1,6.544,0,6.013,6.013,0,0,1,2.306,2.351Z" transform="translate(-417.711 -293.17)" fill="#b5b5b5"/>
      <path id="Path_154086" data-name="Path 154086" d="M515.528,320.312a27.6,27.6,0,0,0-5.424-1.656,24.787,24.787,0,0,0-11.264,0,27.625,27.625,0,0,0-5.424,1.656l-.024-.053a22.61,22.61,0,0,1,2.6-1.21c.9-.325,1.822-.6,2.752-.841a21.169,21.169,0,0,1,11.452,0c.929.242,1.848.518,2.752.841a22.731,22.731,0,0,1,2.6,1.213Z" transform="translate(-418.566 -294.867)" fill="#b5b5b5"/>
      <path id="Path_154087" data-name="Path 154087" d="M514.114,336.352a2.332,2.332,0,0,1-1.668-1.028,12.713,12.713,0,0,1-1.137-1.668c-.664-1.168-1.228-2.39-1.781-3.6a15.382,15.382,0,0,0-2.011-3.367,3.942,3.942,0,0,0-6.437,0,15.365,15.365,0,0,0-2.014,3.367c-.551,1.211-1.116,2.435-1.781,3.6a12.382,12.382,0,0,1-1.137,1.668,2.327,2.327,0,0,1-1.668,1.028,2.259,2.259,0,0,0,1.555-1.119,12.063,12.063,0,0,0,1-1.715c.6-1.184,1.116-2.408,1.62-3.647a14.051,14.051,0,0,1,2.015-3.529,5.841,5.841,0,0,1,1.573-1.378,4.248,4.248,0,0,1,4.116,0,5.843,5.843,0,0,1,1.573,1.378,14.157,14.157,0,0,1,2.015,3.528c.5,1.24,1.014,2.465,1.618,3.649a12.212,12.212,0,0,0,1,1.717A2.263,2.263,0,0,0,514.114,336.352Z" transform="translate(-418.366 -293.583)" fill="#3a3a3a"/>
      <path id="Path_154088" data-name="Path 154088" d="M571.513,335.789a3.059,3.059,0,0,0,1.82-.331,1.79,1.79,0,0,0,1.007-1.437l-.025-3.834.021-3.836a1.824,1.824,0,0,0-1.045-1.411,3.122,3.122,0,0,0-1.825-.3l-.017-.115a2.884,2.884,0,0,1,2.128-.136,2.422,2.422,0,0,1,1.687,1.906,33.932,33.932,0,0,1,.232,3.9,34.418,34.418,0,0,1-.225,3.879,2.407,2.407,0,0,1-1.64,1.944,2.866,2.866,0,0,1-2.131-.1Z" transform="translate(-404.276 -293.617)" fill="#7a6e75"/>
      <path id="Path_154089" data-name="Path 154089" d="M464.43,298.817a35.388,35.388,0,0,1,13.9,2.479,36.166,36.166,0,0,1,0,67.146,35.419,35.419,0,0,1-13.9,2.479,36.387,36.387,0,0,0,32.808-22.465,36.145,36.145,0,0,0,0-27.173,36.382,36.382,0,0,0-32.809-22.465Z" transform="translate(-423.868 -298.274)" fill="#3a3a3a"/>
      <path id="Path_154090" data-name="Path 154090" d="M541.355,298.817a35.38,35.38,0,0,1,13.9,2.479,36.164,36.164,0,0,1,0,67.146,35.4,35.4,0,0,1-13.9,2.479,36.387,36.387,0,0,0,32.808-22.465,36.138,36.138,0,0,0,0-27.173,36.387,36.387,0,0,0-32.81-22.465Z" transform="translate(-409.785 -298.274)" fill="#3a3a3a"/>
      <path id="Path_154091" data-name="Path 154091" d="M464.43,302.042a32.241,32.241,0,1,1,0,64.469v-.058a32.176,32.176,0,0,0,0-64.352Z" transform="translate(-423.868 -297.682)" fill="#b5b5b5"/>
      <path id="Path_154092" data-name="Path 154092" d="M541.355,302.042a32.241,32.241,0,1,1,0,64.469v-.058a32.176,32.176,0,0,0,0-64.352Z" transform="translate(-409.785 -297.682)" fill="#b5b5b5"/>
    </g>
  </g>
</svg>
