<svg xmlns="http://www.w3.org/2000/svg" width="37.8" height="37.864" viewBox="0 0 37.8 37.864">
  <g id="Group_143306" data-name="Group 143306" transform="translate(-445.459 -145.607)">
    <path id="Path_154366" data-name="Path 154366" d="M464.173,182.722c-1.244-.816-2.49-1.628-3.73-2.451a.844.844,0,0,0-.561-.145c-1.359.088-2.718.16-4.077.238a.876.876,0,0,1-.9-.557c-.6-1.2-1.216-2.4-1.819-3.6a.8.8,0,0,0-.384-.387c-1.194-.6-2.376-1.213-3.573-1.8a.946.946,0,0,1-.594-1.013c.087-1.347.149-2.7.228-4.042a.756.756,0,0,0-.137-.494c-.74-1.112-1.461-2.237-2.207-3.344a.957.957,0,0,1,.008-1.2c.739-1.084,1.45-2.187,2.18-3.278a.893.893,0,0,0,.165-.592c-.084-1.3-.135-2.6-.231-3.9a1.049,1.049,0,0,1,.671-1.149c1.18-.569,2.34-1.178,3.513-1.763a.756.756,0,0,0,.361-.363c.59-1.183,1.2-2.357,1.778-3.545a1.009,1.009,0,0,1,1.1-.635c1.346.1,2.695.158,4.041.243a.65.65,0,0,0,.423-.142c1.114-.737,2.235-1.463,3.34-2.215a.954.954,0,0,1,1.2-.006c1.1.751,2.227,1.476,3.337,2.218a.8.8,0,0,0,.528.136c1.371-.084,2.742-.153,4.114-.228a.879.879,0,0,1,.894.563c.6,1.2,1.218,2.4,1.819,3.6a.8.8,0,0,0,.385.385c1.193.6,2.381,1.2,3.569,1.807a.875.875,0,0,1,.585,1.047c-.085,1.359-.155,2.718-.241,4.077a.653.653,0,0,0,.156.418q1.194,1.823,2.389,3.646v.64a4.7,4.7,0,0,1-.6,1.038c-.55.828-1.1,1.658-1.657,2.481a.96.96,0,0,0-.194.735,13.015,13.015,0,0,1,.108,1.7c.047.753.111,1.509.1,2.267a1.012,1.012,0,0,1-.634,1c-1.013.489-2.008,1.014-3.022,1.5a2.209,2.209,0,0,0-1.149,1.135c-.438.983-.951,1.933-1.435,2.9-.386.768-.641.893-1.5.783-.457-.058-.92-.042-1.38-.071-.8-.051-1.6-.1-2.408-.128a.788.788,0,0,0-.452.18c-1.015.633-2,1.313-2.994,1.975a2.406,2.406,0,0,1-.691.344Z" fill="none" stroke="#000" stroke-width="1.5"/>
    <path id="Path_154369" data-name="Path 154369" d="M547.2,258.919a11.32,11.32,0,1,1,11.341-11.284A11.351,11.351,0,0,1,547.2,258.919Z" transform="translate(-82.846 -83.066)" fill="none" stroke="#000" stroke-width="1.5"/>
    <path id="Path_154371" data-name="Path 154371" d="M625.366,338.65a.84.84,0,0,1-.293.615q-2.945,2.779-5.893,5.555a.772.772,0,0,1-1.19-.032q-1.523-1.541-3.025-3.1a.756.756,0,1,1,1.088-1.04c.783.791,1.563,1.585,2.324,2.4.2.211.3.183.491,0q2.533-2.413,5.083-4.808a.81.81,0,0,1,1.138-.146A.753.753,0,0,1,625.366,338.65Z" transform="translate(-155.651 -176.959)"/>
  </g>
</svg>
