<svg id="noun_Secure_Payment_2502247" data-name="noun_Secure Payment_2502247" xmlns="http://www.w3.org/2000/svg" width="48.062" height="37.694" viewBox="0 0 48.062 37.694">
  <rect id="Rectangle_6318" data-name="Rectangle 6318" width="15.345" height="1.332" transform="translate(4.745 29.702)"/>
  <rect id="Rectangle_6319" data-name="Rectangle 6319" width="4.742" height="1.332" transform="translate(22.54 29.702)"/>
  <path id="Path_21722" data-name="Path 21722" d="M52.21,33.812,45.443,30.4V27.259a2.5,2.5,0,0,0-2.5-2.5h-2.4l-2.557-8.578a2.245,2.245,0,0,0-1.119-1.385,1.877,1.877,0,0,0-1.6-.107L6.389,24.808A2.261,2.261,0,0,0,4.9,27.046V48.358a2.5,2.5,0,0,0,2.5,2.5h32.98a13.382,13.382,0,0,0,3.463,1.332c.107,0,.213.053.32.053a.676.676,0,0,0,.32-.053c8.365-1.918,8.471-9.377,8.471-9.431V34.984A1.277,1.277,0,0,0,52.21,33.812ZM35.373,34.984v.693H6.229V32.16H39.423l-3.357,1.7A1.187,1.187,0,0,0,35.373,34.984Zm.373-18.968a.707.707,0,0,1,.586.053.825.825,0,0,1,.426.586l2.451,8.152H10.438ZM6.229,27.312v-.16A1.122,1.122,0,0,1,7.4,26.14H42.992a1.183,1.183,0,0,1,1.172,1.172v2.611a1.214,1.214,0,0,0-.586.16l-1.492.746H6.229ZM7.4,49.53a1.183,1.183,0,0,1-1.172-1.172V37.009H35.373v6.767c0,.107.053.16.053.266a.2.2,0,0,0,.053.16c0,.107.053.213.053.373,0,.053,0,.053.053.107.053.16.107.32.16.533a.186.186,0,0,0,.053.107c.053.16.107.266.16.426,0,.053.053.107.053.213.053.107.107.266.16.373.053.053.053.16.107.213a1.335,1.335,0,0,0,.213.373.4.4,0,0,1,.107.213c.053.107.16.266.213.373.053.053.107.16.16.213.107.16.213.266.32.426l.16.16a5.643,5.643,0,0,0,.533.639h0a5.023,5.023,0,0,0,.533.533H7.4Zm44.222-6.767c0,.266-.107,6.447-7.459,8.152h-.053a10.359,10.359,0,0,1-3.25-1.279,8.608,8.608,0,0,1-4.209-6.873V37.009h0V35.038l7.459-3.783,7.459,3.73v7.779Z" transform="translate(-4.894 -14.553)"/>
  <path id="Path_21723" data-name="Path 21723" d="M72.557,62.994l-2.451-2.4-.906.959,3.357,3.3,6.873-6.5-.906-.959Z" transform="translate(-34.938 -34.571)"/>
</svg>
