<svg id="noun_Refund_4218791" xmlns="http://www.w3.org/2000/svg" width="40.122" height="38.299" viewBox="0 0 40.122 38.299">
  <path id="Path_21721" data-name="Path 21721" d="M26.974,8a19.156,19.156,0,0,0-17.3,10.943H6.912A.912.912,0,0,0,6.1,20.262l3.648,7.3a.912.912,0,0,0,1.631,0l3.648-7.3a.912.912,0,0,0-.816-1.32H11.716a17.325,17.325,0,1,1-.806,14.7.912.912,0,0,0-1.691.684A19.149,19.149,0,1,0,26.974,8ZM10.56,25.11,8.388,20.766h4.344Zm20.061,3.863a2.738,2.738,0,0,1-2.736,2.736v1.368a.912.912,0,1,1-1.824,0V31.709H24.694a.912.912,0,1,1,0-1.824h3.192a.912.912,0,1,0,0-1.824H26.062a2.736,2.736,0,0,1,0-5.471V21.222a.912.912,0,0,1,1.824,0V22.59h1.368a.912.912,0,0,1,0,1.824H26.062a.912.912,0,0,0,0,1.824h1.824A2.738,2.738,0,0,1,30.621,28.973Zm-3.648,8.663A10.487,10.487,0,1,1,37.46,27.149,10.5,10.5,0,0,1,26.974,37.636Zm0-19.149a8.663,8.663,0,1,0,8.663,8.663A8.672,8.672,0,0,0,26.974,18.487Z" transform="translate(-6.001 -8)"/>
</svg>
