<svg id="noun_Free_Shipping_1328040" data-name="noun_Free Shipping_1328040" xmlns="http://www.w3.org/2000/svg" width="38.069" height="38.069" viewBox="0 0 38.069 38.069">
  <g id="Group_143191" data-name="Group 143191">
    <g id="Group_143187" data-name="Group 143187" transform="translate(22.783 31.839)">
      <path id="Path_21717" data-name="Path 21717" d="M42.615,55.2a3.115,3.115,0,1,0,3.115,3.115A3.1,3.1,0,0,0,42.615,55.2Zm0,5.076a1.961,1.961,0,1,1,1.961-1.961A1.945,1.945,0,0,1,42.615,60.276Z" transform="translate(-39.5 -55.2)"/>
    </g>
    <g id="Group_143188" data-name="Group 143188" transform="translate(9.517 31.839)">
      <path id="Path_21718" data-name="Path 21718" d="M19.615,55.2a3.115,3.115,0,1,0,3.115,3.115A3.1,3.1,0,0,0,19.615,55.2Zm0,5.076a1.961,1.961,0,1,1,1.961-1.961A1.945,1.945,0,0,1,19.615,60.276Z" transform="translate(-16.5 -55.2)"/>
    </g>
    <g id="Group_143189" data-name="Group 143189">
      <path id="Path_21719" data-name="Path 21719" d="M38.069.577A.545.545,0,0,0,37.492,0H13.5a.545.545,0,0,0-.577.577V5.941h0V18.284H6.691L3.922,7.556a.573.573,0,0,0-.577-.4H.577a.577.577,0,0,0,0,1.154H2.884l5.71,21.976a.573.573,0,0,0,.577.4H29.993a.7.7,0,0,0,.577-.4l2.192-7.671h4.73a.545.545,0,0,0,.577-.577ZM36.915,5.364H29.3V1.154h7.614ZM28.148,1.154V8.594L25.956,6a.7.7,0,0,0-.923,0l-2.25,2.538V1.154Zm-6.46,0V5.364H14.074V1.154Zm7.9,28.378H9.633l-.75-2.826H30.4Zm1.1-3.98H8.594L7.037,19.5h5.941v2.538a.545.545,0,0,0,.577.577h18Zm-16.612-4.1V6.518h7.614v3.634a.554.554,0,0,0,.4.519.651.651,0,0,0,.634-.173l2.826-3.23,2.826,3.23a.651.651,0,0,0,.634.173.554.554,0,0,0,.4-.519V6.518h7.5V21.457Z"/>
    </g>
    <g id="Group_143190" data-name="Group 143190" transform="translate(21.823 10.051)">
      <path id="Path_21720" data-name="Path 21720" d="M41.967,17.641a.6.6,0,0,0-.923,0l-3.115,4.5a.683.683,0,0,0-.058.577.606.606,0,0,0,.519.288h1.1v4.153a.591.591,0,0,0,.577.577h2.884a.545.545,0,0,0,.577-.577V23.006h1.1a.606.606,0,0,0,.519-.288.531.531,0,0,0-.058-.577Zm.981,4.211a.545.545,0,0,0-.577.577v4.153h-1.73V22.429a.591.591,0,0,0-.577-.577h-.577l2.019-2.884,2.019,2.884Z" transform="translate(-37.834 -17.425)"/>
    </g>
  </g>
</svg>
