<svg xmlns="http://www.w3.org/2000/svg" width="21.903" height="19.889" viewBox="0 0 21.903 19.889">
  <g id="Path_154032" data-name="Path 154032" fill="#fff">
    <path d="M 10.95135879516602 19.2844181060791 C 8.312422752380371 17.48223495483398 6.129883766174316 15.66753387451172 4.461248874664307 13.8876953125 C 2.924068689346313 12.24808502197266 1.816478848457336 10.63328552246094 1.169238805770874 9.088165283203125 C -0.04568120464682579 6.186825275421143 0.6095088124275208 4.209845066070557 1.373088836669922 3.062275171279907 C 2.424718856811523 1.481805086135864 4.340559005737305 0.5000051259994507 6.37294864654541 0.5000051259994507 C 8.063518524169922 0.5000051259994507 9.552498817443848 1.176535129547119 10.56561851501465 2.404965162277222 L 10.95135879516602 2.872685194015503 L 11.33709907531738 2.404965162277222 C 12.35021877288818 1.176525115966797 13.83919906616211 0.5000051259994507 15.52975845336914 0.5000051259994507 C 17.56236839294434 0.5000051259994507 19.47827911376953 1.48174512386322 20.52983856201172 3.062105178833008 C 21.29337882995605 4.209615230560303 21.94850921630859 6.186574935913086 20.73344802856445 9.088225364685059 C 20.08623886108398 10.63328552246094 18.97863960266113 12.24808502197266 17.44145965576172 13.8876953125 C 15.77282428741455 15.66753387451172 13.59029388427734 17.48223495483398 10.95135879516602 19.2844181060791 Z" stroke="none"/>
    <path d="M 10.95135879516602 18.67761421203613 C 15.76718330383301 15.34419441223145 18.9841194152832 11.97017478942871 20.27225875854492 8.895094871520996 C 21.16631889343262 6.760004997253418 21.1114387512207 4.838775157928467 20.11356925964355 3.339095115661621 C 19.15354919433594 1.896295189857483 17.39713859558105 1.000005125999451 15.52975845336914 1.000005125999451 C 13.99122905731201 1.000005125999451 12.63922882080078 1.611945152282715 11.72283840179443 2.723095178604126 L 10.95135879516602 3.658525228500366 L 10.1798791885376 2.723095178604126 C 9.26348876953125 1.611945152282715 7.9114990234375 1.000005125999451 6.37294864654541 1.000005125999451 C 4.505788803100586 1.000005125999451 2.749458789825439 1.896355152130127 1.789368748664856 3.339265108108521 C 0.7914388179779053 4.839035034179688 0.7364888191223145 6.760205268859863 1.63041877746582 8.894985198974609 C 2.918577671051025 11.97017097473145 6.135524749755859 15.34418678283691 10.95135879516602 18.67761421203613 M 10.95135879516602 19.88867568969727 C 5.062878608703613 15.91755485534668 1.974608778953552 12.30490493774414 0.7080687880516052 9.281345367431641 C -2.68493127822876 1.178584933280945 7.006497383117676 -2.696404933929443 10.95135879516602 2.086835145950317 C 14.89621162414551 -2.696406126022339 24.58765029907227 1.178586363792419 21.19464874267578 9.281345367431641 C 19.92809867858887 12.30490493774414 16.83982849121094 15.91755485534668 10.95135879516602 19.88867568969727 Z" stroke="none" fill="#292929"/>
  </g>
</svg>
