<svg xmlns="http://www.w3.org/2000/svg" width="18.646" height="19.889" viewBox="0 0 18.646 19.889">
  <g id="share" transform="translate(-16)">
    <g id="Group_143185" data-name="Group 143185" transform="translate(16)">
      <path id="Path_154038" data-name="Path 154038" d="M31.15,12.9a3.493,3.493,0,0,0-2.812,1.421l-5.488-2.8a3.5,3.5,0,0,0-.114-2.3L28.488,5.76a3.482,3.482,0,1,0-.6-1L22.124,8.224a3.5,3.5,0,1,0,.214,4.336l5.472,2.8A3.5,3.5,0,1,0,31.15,12.9Zm0-11.731A2.331,2.331,0,1,1,28.819,3.5,2.333,2.333,0,0,1,31.15,1.165ZM19.5,12.858a2.331,2.331,0,1,1,2.331-2.331A2.333,2.333,0,0,1,19.5,12.858ZM31.15,18.724a2.331,2.331,0,1,1,2.331-2.331A2.333,2.333,0,0,1,31.15,18.724Z" transform="translate(-16)"/>
    </g>
  </g>
</svg>
